<?xml version="1.0" encoding="UTF-8"?>
<svg data-bbox="0 0 1423 1036" height="1036" width="1423" xmlns="http://www.w3.org/2000/svg" data-type="ugc">
    <g>
        <path fill="#fbfdfd" d="M0 0h1423v1036H0z"/>
        <path fill="#4b5458" d="m363.225 230.86 3.078-.009 10.187-.012 7.314-.015 19.861-.024 12.422-.012 34.447-.026h2.225l2.23-.001 4.473-.001 2.241-.001 35.894-.045 36.925-.037 20.702-.025 19.495-.01 7.125-.013c40.19-.158 40.19-.158 52.019 9.965 8.016 6.681 16.444 7.197 26.439 8.278l5.302.643 13.877 1.603 14.131 1.671 20.636 2.406 2.165.25c5.284.595 5.284.595 10.588.557 1.584-1.454 1.584-1.454 2.75-3.5 7.38-10.602 18.534-17.91 31.25-20.5 7.415-.998 14.776-1.148 22.248-1.147l3.626-.011 9.885-.016 10.691-.022 25.759-.039 12.143-.015 40.374-.039 10.454-.006 2.624-.001 42.161-.066 43.319-.054 24.31-.036 20.682-.02 10.55-.017 11.435.003 3.369-.033c6.136.051 9.686.45 14.37 4.521l2.375 2.063c2.873 5.194 2.286 11.117.954 16.8-.948 3.006-1.994 5.956-3.091 8.911l-1.175 3.29-3.751 10.312-2.475 6.891L1050 315l3.091.416c6.166.922 12.228 2.308 18.315 3.647l2.116.464c14.703 3.23 29.32 6.779 43.917 10.453l10.216 2.551c15.757 3.917 31.411 8.091 46.965 12.758l9.305 2.716C1315.814 386.106 1315.814 386.106 1341 420l2.438 3.125c2.87 5.464 2.432 11.941 1.563 17.875-4.805 12.185-17.886 19.424-29 25l-2.188 1.1c-13.556 6.642-27.734 11.375-42.062 16.025l-2.648.86c-15.287 4.941-30.687 9.492-46.102 14.015l-7.242 2.13-18.421 5.407-11.192 3.283-55.27 15.742-3.333.893L1118 528l-2.504.667L1099 533l-3.055.798-39.984 10.21-3.184.794-15.699 3.898-28.534 7.492c-5.309 1.492-10.642 2.855-16.001 4.16l-2.344.572-9.429 2.279-7.039 1.711-2.137.502c-6.37 1.576-10.695 4.6-15.844 8.521-14.109 10.19-29.48 11.072-46.5 11.5-9.734.263-17.994 1.374-27.25 4.563l-3.641 1.199-5.627 1.885a222 222 0 0 1-11.36 3.538c-80.344 21.771-80.344 21.771-141.31 73.843-6.076 11.678-8.519 22.847-4.437 35.785 8.808 22.906 27.226 41.035 46.375 55.75l3.969 3.156C777 773.902 788.381 782.058 800 790l2.184 1.505c20.621 14.193 42.179 26.911 64.298 38.608l8.274 4.505c13.797 7.605 27.765 14.801 41.869 21.819l3.307 1.65c15.619 7.792 31.306 15.362 47.194 22.588L981 887.312c11.437 5.526 23.051 10.646 34.668 15.778l25.707 11.597c12.921 5.958 25.971 11.607 39.049 17.209l5.468 2.343 85.045 35.701 16.629 6.782 18.486 7.546L1235 996.101l13.203 5.411 6.225 2.556 8.72 3.576 2.781 1.14c4.443 1.805 8.896 3.535 13.419 5.131l2.589.917 4.756 1.619c5.609 1.954 12.529 4.994 15.306 10.548-89.439-3.272-179.152-9.46-288.364-20.713l-7.69-.83-11.496-1.282-5.896-.656c-13.276-1.587-25.269-4.712-36.991-11.207l-2.972-1.594-15.237-8.52C914.387 971.308 895.443 968.885 874 967c6.037 5.975 12.794 9.964 20.102 14.16 5.553 3.194 11.01 6.538 16.461 9.902l2.833 1.735 2.609 1.613 2.338 1.442L920 997v1c-30.799.383-61.246-1.226-91.934-3.762l-6.374-.524-72.991-6.124-15.488-1.312L683 982l-2.84-.244-14.474-1.265-5.842-.511c-30.154-2.722-54.893-12.448-81.079-27.296-5.399-3.059-10.864-5.992-16.328-8.934C517.674 919.568 473.826 893.457 433 863l-3.246-2.395C404.281 841.691 378.617 821.128 359 796l-2.461-3.051C336.725 768.159 325.666 741.128 328 709c4.231-29.315 27.909-53.673 50.438-70.812 27.755-20.681 58.992-35.627 91.028-48.385l2.789-1.113L479 586l-3.12-.01-75.351-.277-36.44-.134-31.782-.121-16.809-.061-15.862-.064-5.783-.017c-9.296-.012-18.488-.216-27.735-1.222l-2.194-.239c-15.439-1.872-29.039-8.949-38.783-21.19-11.166-16.196-11.491-37.169-8.148-56.039 2.716-12.972 7.318-25.028 12.402-37.227 2.592-6.264 4.862-12.606 7.043-19.023l1.19-3.499 1.984-5.85 10.335-30.061 3.726-10.786 20.026-57.59 5.516-15.841 2.696-7.744 3.566-10.278 4.231-12.199 1.669-4.828c2.852-8.287 5.832-16.477 9.32-24.52l.852-1.976c2.423-5.457 5.339-9.898 9.453-14.204l2.172-2.293c13.722-13.385 31.399-17.865 50.053-17.847z"/>
        <path fill="#fbfdfd" d="m361.326 245.846 3.147-.013 10.438-.026 7.486-.025 22.467-.052 6.354-.012 39.528-.06 9.147-.009 2.296-.002 36.765-.088 37.817-.071 21.204-.048 19.972-.025 7.298-.026c33.554-.23 33.554-.23 45.187 10.024L632 257l1.66 1.586c8.21 8.593 9.748 19.715 9.551 31.137-.949 25.487-11.427 50.032-19.887 73.746l-6.386 18.282-10.594 29.512-11.554 32.784L585 471.5 573.812 503l-9.562 27.625-1.032 2.996c-4.833 13.597-11.063 24.215-24.093 31.254-13.564 5.868-26.508 5.543-41.062 5.481l-7.277.006a5127 5127 0 0 1-17.646-.02l-20.588-.02-36.756-.041-35.594-.041h-2.215l-4.417-.001h-2.202l-2.196-.001-34.022-.027-12.291-.011-21.335-.031-7.067-.008c-40.46-.022-40.46-.022-53.458-11.16-7.827-7.967-10.909-18.879-11.187-29.812.235-17.381 3.977-33.321 10.93-49.215 1.917-4.53 3.512-9.165 5.141-13.805l2.617-7.105c1.7-4.472 3.162-9.025 4.662-13.567 1.28-3.862 2.628-7.68 4.092-11.476.98-2.653 1.86-5.334 2.746-8.02 1.088-3.297 2.188-6.573 3.438-9.812 1.479-3.854 2.769-7.768 4.063-11.687 1.496-4.531 3.037-9.029 4.754-13.48.98-2.653 1.86-5.334 2.746-8.02 1.088-3.297 2.188-6.573 3.438-9.812 1.945-5.071 3.59-10.246 5.281-15.406a288 288 0 0 1 3.491-9.669l4.165-11.674.923-2.638 6.562-19.44c1.052-3.099 2.183-6.153 3.342-9.212l3.297-9.302 3.662-10.444 2.125-6.206c4.713-13.323 12.025-22.497 24.809-28.695 8.585-3.74 15.958-4.649 25.232-4.654zm409.619.031 3.111-.006 3.428.009 3.633-.003 10.002.007 10.779.002 18.681.008 27.01.012 43.82.018 42.572.021 2.65.001 13.16.004L1059 246l-3.8 11.442-1.075 3.242a771 771 0 0 1-8.515 24.206c-3.839 10.376-7.623 20.762-10.998 31.301-1.518 4.716-1.518 4.716-2.611 5.809-2.591.106-5.155.146-7.746.145l-2.489.011-8.323.018-5.942.02-12.834.036-20.312.065-57.773.182-31.879.107-20.169.056-12.595.046-5.814.012c-21.829-.494-21.829-.494-40.866 8.845-4.81 5.645-6.961 12.917-9.343 19.829l-3.514 9.914-.701 1.961L790 368l2.668-.008 64.379-.147 31.134-.071 27.147-.056 14.364-.035 13.543-.022 4.948-.018c17.41-.116 33.919 3.117 47.02 15.428 7.966 8.467 10.97 16.875 11.047 28.367l.063 2.217c.09 13.168-4.918 25.347-9.5 37.471l-1.849 4.952-3.924 10.48-6.168 16.575-10.999 29.534-2.437 6.546C957.355 557.108 957.355 557.108 944 565c-9.721 4.129-19.104 5.153-29.537 5.134l-2.816.007-9.294.005-6.684.01-18.124.012-11.333.005-37.527.013h-4.083l-32.759.023-33.698.02-18.894.013-17.778.002q-3.253-.002-6.506.007c-18.489.048-37.404-.167-51.964-13.252l-1.898-1.656c-4.248-3.943-6.977-7.957-9.102-13.344l-1.082-2.559c-1.289-4.831-1.301-9.46-1.293-14.441l.003-3.1c.128-8.249 1.397-15.169 4.372-22.9 2.331-6.119 4.456-12.279 6.5-18.5 1.813-5.52 3.667-11.003 5.736-16.432 1.533-4.151 2.883-8.365 4.264-12.568 1.813-5.52 3.667-11.003 5.736-16.432 1.533-4.151 2.883-8.365 4.264-12.568 1.822-5.545 3.675-11.061 5.754-16.516 1.399-3.721 2.69-7.48 3.996-11.234l1.855-5.316.951-2.727 4.506-12.894.88-2.514 7.824-22.222L710 338.5l1.5-4.25.75-2.125 2.25-6.375.75-2.125 1.502-4.255 3.713-10.55 3.747-10.592 1.604-4.582C737.897 258.807 737.897 258.807 754 250c2.955-1.203 5.929-2.143 9-3 2.958-.986 4.862-1.124 7.945-1.123"/>
        <path fill="#4b5458" d="M1050 315c7.233.81 14.306 2.501 21.406 4.063l2.116.464c14.703 3.23 29.32 6.779 43.917 10.453l10.216 2.551c15.757 3.917 31.411 8.091 46.965 12.758l9.305 2.716C1315.814 386.106 1315.814 386.106 1341 420l2.438 3.125c2.87 5.464 2.432 11.941 1.563 17.875-4.805 12.185-17.886 19.424-29 25l-2.188 1.1c-13.556 6.642-27.734 11.375-42.062 16.025l-2.648.86c-15.287 4.941-30.687 9.492-46.102 14.015l-7.242 2.13-18.421 5.407-11.192 3.283-55.27 15.742-3.333.893L1118 528l-2.504.667L1099 533l-3.055.798-39.984 10.21-3.184.794-15.699 3.898-28.52 7.474c-7.696 2.164-15.433 4.156-23.186 6.104l-7.277 1.855-4.656 1.172-2.184.565c-5.025 1.245-5.025 1.245-7.254.131l1.25-1.555c9.454-12.535 14.392-27.787 19.655-42.424l6.1-16.536 2.44-6.584 9.066-24.129 4.901-12.899 2.41-6.301c8.099-20.725 8.099-20.725 10.552-42.697l-.031-2.303c-.386-14.127-5.327-27.234-15.153-37.544-16.267-15.049-36.84-19.315-58.302-19.346l-4.468-.03-12.029-.055-12.608-.068-23.83-.117-27.149-.138L811 353c.991-7.805.991-7.805 3.625-10.812l1.414-1.707c5.163-3.898 11.586-3.768 17.773-3.732l2.616-.009 8.641.005 6.21-.011 13.354-.008 21.115-.029 60.035-.077 33.171-.055 20.992-.012 13.053-.03 6.054.005 8.262-.022 2.42.028c5.195-.071 8.13-1.121 12.264-4.533 2.443-3.353 3.784-6.842 5.125-10.75 1.777-5.152 1.777-5.152 2.875-6.25z"/>
        <path fill="#2f3494" d="m363.225 230.86 3.078-.009 10.187-.012 7.314-.015 19.861-.024 12.422-.012 34.447-.026h2.225l2.23-.001 4.473-.001 2.241-.001 35.894-.045 36.925-.037 20.702-.025 19.495-.01 7.125-.013c40.19-.158 40.19-.158 52.019 9.965 8.016 6.681 16.444 7.197 26.439 8.278l5.302.643 13.877 1.603 14.131 1.671 20.636 2.406 2.165.25c5.284.595 5.284.595 10.588.557 1.584-1.454 1.584-1.454 2.75-3.5 7.38-10.602 18.534-17.91 31.25-20.5 7.415-.998 14.776-1.148 22.248-1.147l3.626-.011 9.885-.016 10.691-.022 25.759-.039 12.143-.015 40.374-.039 10.454-.006 2.624-.001 42.161-.066 43.319-.054 24.31-.036 20.682-.02 10.55-.017 11.435.003 3.369-.033c6.136.051 9.686.45 14.37 4.521l2.375 2.063c2.846 5.145 2.289 11.057.989 16.697-.901 2.865-1.899 5.673-2.95 8.487l-1.129 3.157-3.66 10.034-2.499 6.903-3.716 10.239-6.586 18.788-1.325 3.916-2.241 6.822c-2.414 7.044-5.495 11.513-12.258 14.895-2.741.101-5.456.142-8.197.138l-2.599.009-8.673.011-6.198.015-13.376.026-21.153.053-60.161.149-33.205.088-17.576.039-16.542.044-6.066.006c-2.765-.004-5.529.011-8.294.03l-2.413-.017c-6.358.075-12.147 1.136-16.921 5.659-1.867 3.16-2.672 6.219-3.625 9.75l2.319-.008 56.019-.147 27.091-.071 23.629-.056 12.496-.035 11.795-.022 4.298-.018c21.895-.169 42.053 5.992 58.165 21.147 10.351 10.461 14.25 24.394 14.563 38.773l.079 2.088c.043 14.17-5.953 28.116-10.892 41.162l-1.863 4.987-3.827 10.212-6.078 16.329-6.42 17.267-4.778 12.954C973.108 557.172 973.108 557.172 963 568l-1.723 1.848c-11.157 10.778-25.267 14.478-40.363 14.413l-2.922.012-9.613.002-6.927.015-18.763.011q-7.85 0-15.699.009l-39.185.004q-16.961-.005-33.923.025l-34.929.024a8100 8100 0 0 0-19.57.015q-9.213.019-18.426-.002-3.364-.004-6.727.009c-23.686.081-46.241-2.166-64.48-19.072-11.732-12.431-15.389-27.385-15.082-43.965.737-16.658 7.301-32.711 12.867-48.234l4.996-14.243.943-2.712 1.925-5.541 15.35-43.607 8.125-23.671c1.845-5.594 3.845-11.124 5.876-16.653l8.688-24.562 16.849-48.001 1.097-3.091 2.053-5.775L718 272l-2.664-.262c-11.173-1.201-22.224-2.986-33.297-4.885a641 641 0 0 0-22.106-3.406c-2.371-.362-4.624-.809-6.932-1.447l.857 2.146c2.957 7.989 3.778 14.998 3.643 23.479l-.037 3.725c-.217 10.037-1.639 19.057-4.463 28.65l-1.145 4.273c-3.548 12.864-8.253 25.352-12.825 37.878l-10.281 29.036-10.363 29.38-8.2 23.433-11.956 33.598-10.294 29.089-9.98 28.532-2.028 5.711C570.052 557.119 560.938 570.403 545 578c-10.14 4.399-18.583 6.149-29.56 6.147l-3.223.011-10.694.019-7.669.02-23.014.039-10.857.015-36.128.039-9.367.006-2.351.001-37.66.066-38.729.054-21.718.036-20.452.017a1306 1306 0 0 0-7.478.02c-21.727.113-40.32-1.494-56.872-17.127-12.729-13.51-13.999-29.638-13.656-47.363.796-17.907 7.001-34.232 13.824-50.602 2.592-6.264 4.862-12.606 7.043-19.023l1.19-3.499 1.984-5.85 10.335-30.061 3.726-10.786 20.026-57.59 5.516-15.841 2.696-7.744 3.566-10.278 4.231-12.199 1.669-4.828c2.852-8.287 5.832-16.477 9.32-24.52l.852-1.976c2.423-5.457 5.339-9.898 9.453-14.204l2.172-2.293c13.722-13.385 31.399-17.865 50.053-17.847zM321 261c-6.692 8.421-9.742 17.931-13 28l-2.764 8.34-1.789 5.44c-1.216 3.703-2.451 7.35-4.014 10.922-1.422 3.27-2.577 6.533-3.684 9.922l-1.293 3.926L293 332l-3.562 10.813-.851 2.602c-1.716 5.188-3.632 10.25-5.692 15.311-1.133 2.881-2.036 5.801-2.895 8.775-1.445 4.833-3.134 9.45-5.066 14.105-.951 2.44-1.71 4.879-2.434 7.395a91 91 0 0 1-3.437 9.813c-1.587 3.844-2.871 7.703-4.062 11.688-1.445 4.833-3.134 9.45-5.066 14.105-.951 2.44-1.71 4.879-2.434 7.395a91 91 0 0 1-3.437 9.813c-1.571 3.804-2.833 7.616-4 11.563-1.6 5.342-3.564 10.391-5.77 15.508-1.909 4.602-3.522 9.299-5.168 14-.84 2.329-1.719 4.559-2.75 6.805-6.96 16.767-9.058 37.982-3.375 55.312 3.714 8.534 9.359 14.523 17.918 18.281A146 146 0 0 0 259 568l3 1c11.808 1.763 24.008 1.163 35.906 1.177l7.267.02 21.707.039 8.195.012 36.191.042 8.828.006 2.216.001 35.548.066 36.593.054 20.507.036 19.29.017 7.055.02c15.654.087 30.327-.217 43.696-9.49l2.266-1.535C561.843 548.185 566.33 525.551 572 509l2.262-6.566 3.491-10.156 15.007-42.662 11.486-32.7 7.441-21.041 13.671-38.647.786-2.242 1.547-4.415 3.937-11.124c2.616-7.314 5.209-14.599 7.122-22.135l.614-2.396c4.155-16.687 7.218-35.632-1.719-51.292-1.433-2.028-2.942-3.819-4.645-5.625l-1.449-1.641c-7.117-7.099-19.221-10.475-29.131-10.491l-2.71-.012-2.949.003-3.155-.009-10.483-.012-7.51-.015-20.418-.024-12.76-.012-35.358-.026h-2.285l-2.29-.001-4.594-.001-2.302-.001-36.892-.045-37.915-.037-21.272-.025-20.021-.01q-3.667.001-7.333-.013c-3.348-.013-6.695-.007-10.043.004l-2.902-.024c-14.03.101-28.602 4.72-38.226 15.392zm422-2-1.391 1.566c-9.674 11.787-13.896 27.484-18.679 41.688l-4.055 11.621-1.445 4.086-.712 2.011L713 330.5l-1.5 4.25-.75 2.125-9 25.499-1.502 4.26-3.713 10.476-9 26.409c-1.391 4.234-2.873 8.39-4.559 12.517-1.934 4.75-3.492 9.559-4.977 14.465-1.757 5.692-3.618 11.229-5.937 16.719-1.542 4.035-2.786 8.155-4.062 12.281-3.079 9.954-3.079 9.954-5 14.5-2.645 6.275-4.524 12.818-6.535 19.316l-3.023 9.398-.745 2.258a94 94 0 0 1-1.86 4.89c-2.706 10.154-2.689 25.233 1.695 34.848 8.327 12.978 19.812 20.272 34.609 23.711L690 569l2.598.528c4.257.591 8.406.614 12.699.606l2.811.007 9.313.005 6.683.01 18.15.012 11.346.005 37.562.013h4.09l32.799.023 33.725.02 18.915.013 17.803.002 6.516.007c25.999.306 25.999.306 47.991-12.252 4.36-5.471 7.413-11.609 10.199-17.996l.904-2.073c3.683-8.588 6.864-17.364 10.062-26.141l5.601-15.279 1.112-3.032L990 469.125l1.3-3.422 6.298-16.406 2.465-6.422 1.123-2.855c5.115-13.393 8.022-30.971 2.916-44.856-6.007-11.802-16.465-19.798-28.785-24.102-6.596-2.039-12.548-3.188-19.485-3.183l-2.154-.003c-2.375-.002-4.75.004-7.126.009h-5.115a8832 8832 0 0 0-13.877.013l-14.506.008-27.465.021-31.269.022L790 368l3.943-11.469 1.332-3.89c6.864-20.255 6.864-20.255 16.792-25.716 8.153-3.903 16.827-4.073 25.723-4.084l2.535-.015 8.332-.032 6.004-.03 16.244-.068 16.996-.076 32.16-.138 36.624-.16L1032 322l6.027-15.579 1.042-2.945 1.083-3.081 1.158-3.28 2.408-6.835 3.64-10.321 2.357-6.689 1.077-3.051 5.843-17.108.693-2.083L1059 246l-111.469-.153-13.165-.012-2.647-.002-42.416-.064-43.535-.051-26.855-.041-18.425-.017a2085 2085 0 0 1-10.624-.017l-11.537-.003-3.366-.026c-12.725.073-23.387 3.687-31.96 13.387z"/>
        <path fill="#2a2f91" d="m505.875 14.813 2.164-.004c18.226.003 34.782.998 48.891 13.965 11.225 11.803 11.6 25.227 11.418 40.617-.271 8.004-1.92 14.375-5.348 21.609l-1.164 2.547C554.17 108.669 541.088 119.778 526 127c-2.918.719-2.918.719-5 1l10.688 30.125.879 2.396c1.82 4.923 3.747 9.781 5.902 14.569.649 2.334.35 3.654-.469 5.91-1.867 1.867-5.001 1.242-7.5 1.316l-2.012.063-6.488.183-4.408.129c-9.867.279-19.721.413-29.592.309-4.514-8.609-8.268-17.367-11.75-26.437l-1.457-3.756-2.651-6.859L469 138c-2.37 3.555-3.832 7.299-5.406 11.246l-.986 2.447-3.108 7.744-3.108 7.734-1.93 4.811-.89 2.214-.776 1.937c-.854 1.999-1.806 3.93-2.797 5.865l-11.993.427-6.024.217c-9.001.311-17.976.414-26.982.355-.942-3.669-.995-6.072.061-9.701l.781-2.747.877-2.951.896-3.109 2.886-9.868 1.859-6.43 10.284-34.437 5.794-20.008c4.992-18.018 10.35-35.927 15.839-53.799l1.754-5.749 1.086-3.515.957-3.113C449 25 449 25 451 22c1.885-.768 1.885-.768 4.191-1.316l2.583-.624 2.788-.622 2.901-.655c14.22-3.114 27.887-3.951 42.411-3.97z"/>
        <path fill="#fbfdfd" d="m414.972 336.659 3.638-.001 9.835.038 10.294.024 19.475.064 22.179.065L526 337c-.977 8.585-.977 8.585-2.157 11.903l-.707 2.027-.777 2.148-.831 2.363-2.778 7.808-1.977 5.595-3.216 9.096-8.219 23.421-2.074 5.952-.694 1.99-1.387 3.98-3.383 9.713-13.682 38.491-1.081 3.006c-3.439 9.259-3.439 9.259-7.036 12.506-6.278 2.411-12.332 2.27-18.994 2.227l-3.609.001-9.742-.025-10.202-.016-19.294-.043-21.976-.043L347 479c.586-4.323 1.263-8.261 2.723-12.375l1.106-3.157 1.234-3.468 2.75-7.855.756-2.157 7.017-20.503 10.311-30.264 2.239-6.539 6.884-19.936 2.178-6.314 3.061-8.803.879-2.604c2.378-6.673 5.383-12.604 11.311-16.727 5.184-1.893 10.047-1.69 15.524-1.638z"/>
        <path fill="#2a2f91" d="m332.188 17.938 5.486.014L351 18c1.554 2.408 2.078 3.543 1.588 6.416l-.932 2.705-1.021 3.053-1.136 3.263-2.266 6.797-1.15 3.443c-1.567 4.803-2.969 9.646-4.334 14.51l-.727 2.583-1.374 4.909-3.024 10.634-.961 3.363L335 82l3.75-.5c8.708-.896 17.508-.583 26.25-.5l.594-2.734c2.922-13.074 6.642-25.911 10.398-38.767l2.078-7.407 1.055-3.83.945-3.49C381 22 381 22 383 20c5.959-1.33 12.298-1.148 18.375-1.133l2.577-.003 5.334.005 8.202-.006 5.199.004 2.484-.006c5.714.024 5.714.024 6.829 1.139-.478 6.652-2.211 12.758-4.125 19.125l-.943 3.19-6.432 20.623c-3.515 10.888-6.597 21.88-9.629 32.911l-2.585 9.237L399 138.938l-1.006 3.777-4.986 18.899-1.883 7.137-.867 3.355-.812 3.067-.703 2.69C388 180 388 180 386 182c-1.866.247-1.866.247-4.158.243l-2.599.009-2.809-.022-2.876-.001-6.025-.023-9.257-.02-5.842-.018-2.816-.003-2.589-.019-2.29-.012C343 182 343 182 342 181c-.297-5.394.48-10.139 1.68-15.348l.524-2.348 1.105-4.883 1.672-7.438 1.074-4.768.499-2.226c.945-4.118 2.103-7.96 3.446-11.989h-32l-3 15-3 10.75-1.574 5.383-.748 2.54-3.135 11.366c-.462 1.669-.995 3.318-1.543 4.961l-19.171.482-6.527.166-9.36.231-2.967.082-2.73.061-2.416.061C262 183 262 183 261 182c-.247-4.981.34-9.337 1.469-14.18l.472-2.052 1.559-6.643 1.089-4.685 8.549-35.648L280 93.875c2.904-12.751 6.168-25.402 9.486-38.05l2.993-11.72 1.428-5.689 1.748-7.041.803-3.168.687-2.766c.943-2.688 1.865-4.4 3.856-6.441 9.309-2.841 21.489-1.109 31.188-1.062zm543.878-.036 2.786.004 8.71.031 5.947.014L908 18c.982 3.745.981 6.046-.258 9.703l-.889 2.694-.978 2.853-1.973 5.977-.989 2.978c-1.237 3.785-2.372 7.595-3.476 11.421l-1.172 4.035-.604 2.079-3.975 13.324-.809 2.692L891 82l2.719-.219c9.447-.703 18.81-.893 28.281-.781l.371-2.949c.627-4.359 1.621-8.594 2.691-12.863l.64-2.563c2.756-10.763 6.128-21.342 9.467-31.935a230 230 0 0 0 2.006-6.888C938 21 938 21 939 20c15.812-2.41 32.089-2.67 48-1l1 1c-.354 7.078-2.184 13.283-4.361 19.997l-3.576 11.753-.78 2.607-1.548 5.181-1.396 4.666c-2.774 9.26-5.382 18.555-7.902 27.887l-6.312 22.409-10.07 36.773L944 181h-46c.68-6.12 1.492-11.896 2.813-17.867l.527-2.428 1.099-5.027 1.679-7.701 1.07-4.906.505-2.32c.656-2.974 1.344-5.859 2.307-8.75h-32l-1 7-1.488 6.316-.886 3.548-.938 3.698-.954 3.782c-6.089 24.01-6.089 24.01-7.734 25.655a63 63 0 0 1-4.244.205l-2.73.06-2.967.051-3.022.063-9.599.183-6.49.131L818 183c-.987-3.819-.926-6.476-.031-10.305l.72-3.157.811-3.413 1.695-7.355.903-3.873 2.581-11.448 10.403-43.791 6.105-25.471c2.191-9.625 4.55-19.184 7.143-28.708l2.244-8.467 1.613-6.074.758-2.907.723-2.69.634-2.395C855 21 855 21 857 19c6.176-1.401 12.769-1.135 19.066-1.098"/>
        <path fill="#2a2f90" d="m1107.414 17.87 6.641-.006 4.297.004 3.87.003c11.027.378 11.027.378 12.779 2.129.374 5.664-.664 10.369-2.187 15.75l-1.398 5.113-.722 2.608-2.426 9.223c-3.199 12.395-6.769 24.684-10.313 36.984l-2.52 8.869-3.634 12.695-1.688 5.875c-11.013 38.417-11.013 38.417-24.111 51.883l-1.82 1.938c-14.498 14.074-35.478 15.247-54.485 15.303l-5.982.072c-14.343.057-26.244-2.502-38.463-10-8.196-8.423-10.653-17.993-10.619-29.439.768-27.678 10.474-55.685 18.539-81.901l4.557-15.063 2.046-6.816 1.318-4.406 1.844-6.134 1.064-3.547L1005 26l.692-2.347C1007 22 1007 22 1010.04 21.26a207 207 0 0 1 13.323-.428l2.646-.01 5.499-.007 8.439-.039 5.354-.006 2.554-.022c5.917.023 5.917.023 8.146 2.252-.37 5.334-1.859 10.151-3.547 15.18l-.767 2.336-2.436 7.359-3.172 9.617-.788 2.399c-2.606 7.986-4.966 16.037-7.29 24.109l-1.555 5.305-8.32 30.07-.941 3.476c-2.128 7.977-2.128 7.977-2.184 16.149 2.918 2.918 5.189 2.301 9.25 2.313l3.953.051c4.218-.404 6.359-.88 9.797-3.363 4.9-6.405 6.921-14.309 9.125-21.937l1.138-3.865c3.365-11.531 6.441-23.142 9.487-34.76l.686-2.614 8.998-36.436 2.816-11.638.492-2.033c1.143-4.602 1.143-4.602 2.258-5.717 8.004-1.468 16.307-1.154 24.414-1.13z"/>
        <path fill="#2a2f91" d="m234.125 15.75 2.622-.016h7.448l2.295-.012c5.279.047 5.279.047 7.509 2.278.249 2.258.249 2.258.247 5.133l.013 3.298-.017 3.637.006 3.82-.013 10.418-.007 10.978-.023 18.525-.02 21.184-.015 22.752-.003 6.434-.615 44.263-.117 3.792-.125 3.452-.108 3.047C253 181 253 181 252 182l-4.229.221-2.72.07-2.958.06-3.015.07-6.325.136-9.718.224-6.129.133-2.958.072-2.72.051-2.407.051C207 183 207 183 206 182l.121-6.004.146-3.682.17-3.877.158-3.889L207 155l-2 1-5.891.281-3.59.113-3.77.105-7.328.219-3.294.092c-4.616.264-4.616.264-9.128 1.189-1.778 1.991-1.778 1.991-2.922 4.621l-1.418 2.834-1.41 2.982-2.859 5.809-1.249 2.615C161 179 161 179 159 181c-1.873.241-1.873.241-4.174.227h-2.608l-2.819-.031-2.884-.009-9.14-.062-6.187-.027L116 181c-1.332-4.297-.288-6.291 1.621-10.379l.881-1.913 2.936-6.27 2.052-4.43 4.321-9.298 6.294-13.693 1.008-2.215 2.007-4.41 7.961-17.39 2.612-5.698 25.2-52.948 5.987-12.373 2.692-5.583 3.23-6.759 1.463-2.988 1.243-2.594c2.576-3.555 5.853-3.944 10.019-4.691 12.172-1.48 24.354-1.583 36.598-1.617z"/>
        <path fill="#fbfdfd" d="m833.242 336.712 2.431-.02 8.024-.03 5.773-.035 15.666-.06 9.817-.029 30.795-.069 35.39-.128 27.446-.081 16.345-.061c42.719-.322 42.719-.322 59.953 6.936 3.506 1.431 7.122 2.494 10.74 3.603l7.816 2.574 2.092.695c69.229 23.121 69.229 23.121 83.603 46.863 2.208 5.42 1.504 11.496-.57 16.816-14.197 20.379-44.217 26.424-66.562 33.313l-3.168.984c-12.592 3.847-25.463 6.531-38.332 9.266l-2.465.525c-9.977 2.113-19.912 3.942-30.035 5.225.548-3.79 1.292-7.145 2.742-10.687l1.039-2.594 1.094-2.718c7.407-19.078 10.818-38.549 2.871-58.082-7.432-16.099-19.941-24.522-36.055-30.82-10.755-3.854-21.466-4.4-32.802-4.417l-4.468-.03-12.029-.055-12.608-.068-23.83-.117-27.149-.138L811 353c.991-7.805.991-7.805 3.625-10.812l1.414-1.707c4.973-3.755 11.206-3.777 17.203-3.768z"/>
        <path fill="#2a2f90" d="M1372 17c.96 3.669 1.042 5.84-.323 9.375l-.951 2.518-1.057 2.677-1.066 2.782-2.253 5.804-3.437 8.894-2.182 5.645-1.039 2.689-.98 2.499-.857 2.195C1357 64 1357 64 1355 67a75 75 0 0 1-8.383.477l-2.567.047-8.175.101-10.633.164-2.617.039c-7.896.135-15.75.587-23.625 1.172l-.636 2.342L1294 87l2.375-.494c4.566-.638 9.013-.63 13.617-.604l2.866.004 9.016.031 6.133.014L1343 86c1.175 4.835.356 8.278-1.125 12.938l-.609 2.033c-2.174 7.105-4.762 14.02-7.266 21.029l-51 1-5 16 54-2c1.351 4.442.622 6.595-1.437 10.688l-1.68 3.434-.921 1.871c-1.405 2.933-2.696 5.914-3.992 8.896l-3.122 6.967a99 99 0 0 0-2.977 7.258c-1.055 2.594-1.812 3.995-3.871 5.887-2.697.55-2.697.55-6.03.707l-3.816.183c-7.516.226-15.03.254-22.548.243l-5.179.003a6245 6245 0 0 1-10.753-.005 5295 5295 0 0 0-13.807.004 6096 6096 0 0 1-10.647 0 2893 2893 0 0 0-5.097.002 2054 2054 0 0 1-7.072-.007l-2.133.006c-4.805-.021-4.805-.021-5.919-1.136.612-6.369 2.197-12.561 3.652-18.781l.803-3.454 8.277-33.954 2.5-10.014 9.172-34.699 1.808-6.427c8.291-29.632 8.291-29.632 12.788-43.234l.843-2.573c1.902-5.609 1.902-5.609 4.157-7.864a98 98 0 0 1 7.605-1.07l2.435-.261 8.147-.794 2.834-.272c28.568-2.653 57.322-1.971 85.978-1.603z"/>
        <path fill="#2a2f91" d="m691.75 16.938 3 .263 2.797.264 2.526.238C702 18 702 18 703 19c-.176 6.066-1.552 11.999-2.996 17.867l-.587 2.428-1.228 5.027-1.863 7.701-1.197 4.906-.556 2.32c-.841 3.385-1.619 5.819-3.573 8.75-2.775.293-2.775.293-6.301.188l-3.904-.07-4.107-.117c-19.311-.57-19.311-.57-35.941 8.176-3.434 3.588-4.563 6.52-5.246 11.387.504 3.462 1.063 4.864 3.699 7.129 5.822 4.231 11.912 7.879 18.301 11.184 9.576 5.151 18.554 12.233 23.5 22.125 1.258 11.558-1.105 19.502-8.051 28.723-15.033 17.704-39.692 25.798-62.281 28.031-18.305 1.132-36.657.944-54.668-2.754-1.543-1.543-1.186-2.936-1.215-5.09.067-6.571 1.17-12.971 2.296-19.427l1.053-6.219c1.717-10.116 1.717-10.116 2.865-11.264 2.19.096 4.378.256 6.563.438 24.617 2.662 24.617 2.662 47.691-3.84 2.073-1.585 2.073-1.585 2.434-4.848-.992-5.41-3.346-7.514-7.687-10.75-2.402-1.52-4.853-2.95-7.312-4.375-12.35-7.158-21.636-15.492-25.562-29.625-2.471-11.533-1.371-22.72 4.5-33.125 13.063-20.046 33.562-29.401 56.23-34.423 17.851-3.763 35.786-4.112 53.895-2.515z"/>
        <path fill="#fafcfd" d="M653 262c12.585 1.247 25.035 3.014 37.51 5.087l8.732 1.435 5.594.92 2.617.429 2.432.405 2.123.352c2.023.378 4.002.853 5.992 1.373-.637 4.689-1.895 8.977-3.484 13.414l-.763 2.166-2.503 7.045-1.753 4.956-13.136 36.507c-3.71 10.218-7.314 20.459-10.651 30.806-1.73 5.329-3.623 10.58-5.612 15.817-2.714 7.158-5.185 14.376-7.564 21.652l-12.409 36.387-1.487 4.205-7.23 20.232C642.417 490.118 634.801 512.121 636 539l-2.769.699-51.609 13.824-3.239.945-2.8.826c-2.514.686-5.022 1.227-7.583 1.705l.894-1.866c3.743-8.001 6.813-16.203 9.794-24.509l1.599-4.426 10.567-30.174 14.907-42.41 2.091-5.888 1.041-2.931 7.264-20.765 9.004-25.21 15.643-44.298 2.437-7.144c6.728-19.661 12.923-38.058 13.01-59.004l.063-3.66c.034-8.005-.973-15.057-3.312-22.715z"/>
        <path fill="#2a2f91" d="m798.188 17.832 2.362-.01 4.942-.007 7.418-.039c9.563-.033 18.652.526 28.09 2.225 1.505 3.882.433 6.197-1.098 9.953l-1.422 3.544-1.543 3.752-1.539 3.819-2.29 5.681c-2.428 6.003-4.677 12.063-6.89 18.148-1.234 3.141-2.663 6.108-4.219 9.102l-3.793-.484c-21.232-2.341-40.479-.78-57.895 12.609-10.834 9.334-19.413 21.985-20.516 36.559-.094 5.515-.116 9.67 3.203 14.316 6.879 6.898 13.567 6.356 22.76 6.385 13.503-.193 24.957-4.33 36.978-10.237 3.828-1.822 6.184-2.533 10.262-1.148-.462 6.837-3.124 12.406-6 18.563l-1.499 3.22c-11.237 23.698-11.237 23.698-19.005 26.558L784 181l-3.777 1.066c-20.073 5.416-41.12 6.331-60.223-3.066-14.17-8.673-24.828-20.688-29.34-36.937-5.105-26.384 2.683-53.347 17.167-75.351C710.915 62.206 714.351 58.059 718 54l2.039-2.289C737.227 33.493 759.642 23.429 784 19l2.766-.542c3.818-.541 7.575-.62 11.422-.626M126.875 16.75l3.867-.016h10.938l3.373-.012 3.087.019 2.709.005C153 17 153 17 155 19c-.431 6.133-3.008 12.208-5.187 17.902l-.919 2.436-1.916 5.039-2.923 7.734-1.867 4.916-.878 2.336C139.23 64.77 139.23 64.77 137 67a88 88 0 0 1-7.367.414l-2.252.059-7.256.152-4.94.115L81 68l-.38 1.756C79.274 75.898 77.687 81.943 76 88l1.948-.217c9.772-.959 19.495-.896 29.302-.846l5.184.014L125 87c.925 3.623 1.014 6.008-.039 9.59l-.753 2.608-.833 2.739-.831 2.813c-6.281 20.986-6.281 20.986-8.544 23.249a78 78 0 0 1-4.703.205l-3.033.06-3.299.051-3.359.063-10.669.183-7.213.131L64 129l-.549 1.579-5.695 16.354-2.121 6.093-3.061 8.788-.947 2.725-1.787 5.084-1.632 4.74c-1.903 5.48-1.903 5.48-4.957 7.076-5.812 1.006-11.37 1.686-17.277 1.66l-3.896-.01-4.014-.025-4.096-.014L4 183c-.809-3.325-1.102-5.71-.25-9.027l.583-2.348.667-2.562 1.43-5.738.78-3.112 3.089-13.227c3.232-14.132 6.733-28.19 10.326-42.235l.696-2.728a1363 1363 0 0 1 15.073-54.25l2.408-8.081 1.553-5.184.717-2.418C43.423 24.297 43.423 24.297 45 22c2.798-.793 5.261-1.269 8.125-1.625l2.692-.357c23.637-2.926 47.273-3.217 71.058-3.268m1072.313-.937 3.494-.002c8.184.056 8.184.056 9.318 1.19-.385 6.546-2.27 11.887-4.762 17.91l-1.159 2.874-2.475 6.105-6.514 16.22-1.318 3.306c-3.994 10.063-7.764 20.198-11.397 30.397l-.855 2.4L1169 139l3-1a190 190 0 0 1 6.504-.5l3.936-.25 4.123-.25c7.815-.481 15.611-.98 23.397-1.808 2.562-.241 5.093-.291 7.665-.254l2.539.027L1222 135c1.474 4.664.403 7.268-1.535 11.664l-.836 1.917-1.778 4.009-2.654 6.023A465 465 0 0 1 1210 170l-1.575 3.374-1.507 3.017-1.3 2.634C1204 181 1204 181 1201.243 181.852c-2.972.283-5.877.269-8.859.179-2.601-.035-5.169.076-7.767.214-16.427.846-32.86.861-49.305.879l-3.464.008h-9.797l-3.03.006-2.762-.009-2.429-.002C1112 183 1112 183 1111 182c-.065-8.736 2.645-17.301 4.813-25.687l1.041-4.107L1124 125l1.605-6.027c6.73-25.191 13.814-50.256 21.332-75.223l.87-2.9 2.47-8.178.744-2.48.701-2.299.604-1.995c.739-2.081 1.582-3.977 2.673-5.898 3.103-1.4 6.646-1.566 10-2l2.009-.273c10.725-1.418 21.362-1.907 32.179-1.914z"/>
        <path fill="#2e3393" d="m418.391 321.694 3.63-.025 9.768-.036 6.118-.017 21.386-.041 19.873-.075 17.127-.051 10.202-.038 11.372-.01 3.379-.045c6.739.063 11.657 1 16.753 5.644 3.402 5.421 4.01 10.78 3 17-1.517 4.752-3.341 9.345-5.205 13.968-1.196 3.056-2.214 6.163-3.232 9.282l-8.655 25.169-5.282 15.082-4.375 12.464-9.766 28.707c-1.931 5.878-4.142 11.603-6.484 17.328l-1.309 3.32c-4.227 10.502-7.475 17.313-18.077 22.259-5.757 2.105-11.576 1.855-17.637 1.841l-3.905.026-10.543.023q-4.41.002-8.82.017l-20.808.015a3506 3506 0 0 0-21.438.053l-18.444.038c-3.667-.002-7.333.003-11 .028-4.086.026-8.171.013-12.258-.005l-3.665.04c-9.134-.092-9.134-.092-12.812-3.07-4.413-4.992-4.98-8.804-4.829-15.406.82-8.383 4.301-16.376 7.131-24.239l4.615-13.125 5.514-15.812 11.232-32.52 3.806-11.143 2.453-7.235c13.319-39.465 13.319-39.465 26.774-46.263 7.719-3.229 16.185-3.145 24.409-3.15zm-25.686 23.063c-2.077 3.951-3.571 7.921-4.99 12.146l-.901 2.612-2.876 8.424-2.016 5.86-3.043 8.843-8.691 24.735-11.608 33.224-5.982 17.151-1.138 3.203-2.125 5.906-.937 2.641-.823 2.281c-.644 2.482-.615 4.665-.576 7.219l47.306.155 21.966.071 19.153.056 10.135.035 11.332.023 3.37.033c6.291-.025 11.043-.623 16.738-3.373 4.376-4.849 6.09-11.228 8.188-17.312l1.26-3.589 3.688-10.6 2.812-8.108 8.719-25.141 12.459-35.562 1.312-3.692 5.786-16.14 1.965-5.48.885-2.407c1.365-3.827 2.055-6.924 1.927-10.968l-47.697-.259-22.148-.118-19.311-.093-10.219-.058-11.426-.039-3.398-.054c-8.319.055-13.704 1.902-19.096 8.378z"/>
        <path fill="#2d3293" d="m766.912 443.86 3.224-.017 3.568-.003 3.735-.015 10.179-.024 6.366-.012 19.933-.027 22.975-.051 17.771-.033 10.605-.025 11.862-.009 3.513-.028c8.17.042 15.652.791 22.481 5.572 2.141 3.212 2.404 4.988 2.344 8.75-.626 2.754-1.975 4.662-3.469 7.063l-1.867 3.813-.996 2.07-2 4.234c-3.592 7.407-8.785 12.244-16.137 15.883-6.919 2.034-13.852 2.297-21.014 2.291l-3.187.02-10.338.025-7.231.02-15.115.014a3605 3605 0 0 0-19.341.062l-14.917.025-7.131.027-9.971.002-2.954.034c-6.086-.056-10.727-1.031-15.802-4.52-3.085-3.471-3.231-6.288-3.167-10.848.265-3.406 1.252-6.444 2.32-9.679l.665-2.044 1.4-4.222 2.14-6.49c3.893-11.839 3.893-11.839 9.555-11.857z"/>
        <path fill="#f8fafa" d="m671 578 4.188 1.438c4.856 1.668 9.764 2.667 14.813 3.563-2.595 2.595-5.459 3.358-8.859 4.504l-4.288 1.481-2.276.779c-71.805 23.821-71.805 23.821-124.901 74.533-4.332 9.06-4.185 20.376-.926 29.766 1.764 4.183 3.93 8.042 6.25 11.938v2h-17c-7.254-13.332-10.568-26.74-6.375-41.687 10.436-30.289 41.731-48.808 69.001-62.27 18.047-8.748 36.276-16.9 55.386-23.04 11.985-3.87 11.985-3.87 14.987-3.003z"/>
        <path fill="#f7f9f9" d="M1092 338c11.87-.871 21.734 1.647 33 5l4.852 1.387c61.915 17.87 61.915 17.87 84.148 37.613l2.141 1.859c6.733 6.234 11.05 12.785 11.422 22.141-.683 14.045-9.613 23.902-19.562 33l-1.711 1.574c-9.072 7.432-24.247 4.53-35.289 4.426a200 200 0 0 1 9.875-9.375L1186 431l1.957-1.75c6.725-6.315 13.415-15.134 14.379-24.52.08-7.245-.034-12.759-4.336-18.73l-1.145-1.719c-15.073-20.037-48.102-28.764-70.855-35.281l-3.922-1.203c-10.256-3.134-20.583-5.6-31.078-7.797z"/>
        <path fill="#f8fafc" d="M772 459h116c-5.594 15.383-5.594 15.383-10.872 17.888-6.004 2.091-11.37 2.525-17.697 2.452l-3.078.001-9.982-.049-6.957-.013-18.243-.074-18.642-.06L766 479c1.403-7.132 3.457-13.006 6-20"/>
        <path fill="#0d0d13" d="m691.75 16.938 3 .263 2.797.264 2.526.238C702 18 702 18 703 19c-.176 6.066-1.552 11.999-2.996 17.867l-.587 2.428-1.228 5.027-1.863 7.701-1.197 4.906-.556 2.32c-.841 3.385-1.619 5.819-3.573 8.75-2.775.293-2.775.293-6.301.188l-3.904-.07-4.107-.117c-19.311-.57-19.311-.57-35.941 8.176-3.434 3.588-4.563 6.52-5.246 11.387.504 3.462 1.063 4.864 3.699 7.129 5.822 4.231 11.912 7.879 18.301 11.184 9.576 5.151 18.554 12.233 23.5 22.125 1.258 11.558-1.105 19.502-8.051 28.723C662.123 169.472 646.338 177.668 630 181c-2.371-.402-2.371-.402-4-1 2.088-2.088 3.041-2.489 5.781-3.332l2.287-.722 2.431-.758c15.823-5.131 30.95-13.016 39-28.437 2.616-6.646 2.913-14.411.125-21L673 123l-1.895-2c-6.88-6.751-14.866-11.183-23.194-15.906-6.199-3.549-12.09-6.93-15.912-13.094-1.165-6.355.608-10.322 4.098-15.668C642.226 68.819 651.597 65.23 661 64c3.105-.162 6.203-.185 9.313-.187l2.436-.037c5.659-.014 10.785.778 16.252 2.225l.629-2.988C692.657 48.898 696.315 34.955 700 21l-18.292-.165-6.199-.062c-28.323-.351-61.056 3.985-82.7 24.234-8.848 9.746-13.663 21.956-13.125 35.148 1.288 11.576 6.715 20.241 15.488 27.746 3.517 2.609 7.205 4.839 10.953 7.098 13.334 8.099 13.334 8.099 15.523 15.063.327 2.978-.14 5.244-1.918 7.668-8.096 7.679-18.004 7.7-28.605 7.52l-3.645-.016c-18.253-.159-18.253-.159-24.48-2.234l-.244 1.797L558 179c10.955 1.671 21.651 2.291 32.728 2.206l7.403-.02c9.005-.021 17.9-.314 26.869-1.186v2l-5 .938-2.812.527C597.154 186.828 575.88 186.082 556 182c-1.543-1.543-1.186-2.936-1.215-5.09.067-6.571 1.17-12.971 2.296-19.427l1.053-6.219c1.717-10.116 1.717-10.116 2.865-11.264 2.19.096 4.378.256 6.563.438 24.617 2.662 24.617 2.662 47.691-3.84 2.073-1.585 2.073-1.585 2.434-4.848-.992-5.41-3.346-7.514-7.687-10.75-2.402-1.52-4.853-2.95-7.312-4.375-12.35-7.158-21.636-15.492-25.562-29.625-2.471-11.533-1.371-22.72 4.5-33.125 13.063-20.046 33.562-29.401 56.23-34.423 17.851-3.763 35.786-4.112 53.895-2.515zm106.438.894 2.362-.01 4.942-.007 7.418-.039c9.563-.033 18.652.526 28.09 2.225 1.675 4.032.13 7.117-1.422 10.918l-.79 1.993-1.675 4.153-2.535 6.379-1.625 4.037-.758 1.935c-.737 1.781-.737 1.781-2.195 4.585l-3 1c.666-3.942 1.836-7.453 3.285-11.176l1.357-3.506 1.42-3.631 1.432-3.689L838 24c-20.282-2.935-40.96-3.753-61 1l-3.805.809C763.323 28.118 754.793 32.087 746 37l-3.031 1.688C735.447 43.183 729.209 48.885 723 55l-2.371 2.297C709.379 68.928 701.69 83.623 697 99l-1.023 3.266C692.011 117.328 691.66 135.618 698 150l.84 2.199c5.39 12.644 17.633 21.736 29.973 26.758 8.124 2.658 15.709 3.431 24.25 3.418l3.328-.005c9.098-.136 17.009-1.384 25.61-4.37l2.465-.699c10.381-3.766 15.119-19.288 19.478-28.588A456 456 0 0 0 810.001 135l-1.601.687-7.336 3.126-2.518 1.08c-14.674 6.223-31.749 11.787-47.67 6.857-8.028-3.303-11.097-7.194-14.875-14.75-1.372-13.811 3.57-26.864 12.105-37.664 2.223-2.533 4.518-4.947 6.895-7.336l1.793-1.898c12.066-11.773 29.13-16.52 45.534-16.396 6.337.157 12.477.934 18.673 2.295l.414-2.203a80 80 0 0 1 1.961-7.547l.711-2.359L825 57l3-1c-.496 5.709-1.798 13.798-6 18l-6.326-.725c-20.41-2.102-38.721.056-55.362 12.85-10.834 9.334-19.413 21.985-20.516 36.559-.094 5.515-.116 9.67 3.203 14.316 6.879 6.898 13.567 6.356 22.76 6.385 13.503-.193 24.957-4.33 36.978-10.237 3.828-1.822 6.184-2.533 10.262-1.148-.462 6.837-3.124 12.406-6 18.563l-1.499 3.22c-11.237 23.698-11.237 23.698-19.005 26.558L784 181l-3.777 1.066c-20.073 5.416-41.12 6.331-60.223-3.066-14.17-8.673-24.828-20.688-29.34-36.937-5.105-26.384 2.683-53.347 17.167-75.351C710.915 62.206 714.351 58.059 718 54l2.039-2.289C737.227 33.493 759.642 23.429 784 19l2.766-.542c3.818-.541 7.575-.62 11.422-.626"/>
        <path fill="#0a0b10" d="m505.875 14.813 2.164-.004c18.226.003 34.782.998 48.891 13.965 11.225 11.803 11.6 25.227 11.418 40.617-.271 8.004-1.92 14.375-5.348 21.609l-1.164 2.547C554.17 108.669 541.088 119.778 526 127c-2.918.719-2.918.719-5 1l10.688 30.125.879 2.396c1.82 4.923 3.747 9.781 5.902 14.569.649 2.334.35 3.654-.469 5.91-1.867 1.867-5.001 1.242-7.5 1.316l-2.012.063-6.488.183-4.408.129c-9.867.279-19.721.413-29.592.309-4.514-8.609-8.268-17.367-11.75-26.437l-1.457-3.756-2.651-6.859L469 138c-2.37 3.555-3.832 7.299-5.406 11.246l-.986 2.447-3.108 7.744-3.108 7.734-1.93 4.811-.89 2.214-.776 1.937c-.854 1.999-1.806 3.93-2.797 5.865l-11.993.427-6.024.217c-9.001.311-17.976.414-26.982.355-.942-3.669-.995-6.072.061-9.701l.781-2.747.877-2.951.896-3.109 2.886-9.868 1.859-6.43 10.284-34.437 5.794-20.008c4.992-18.018 10.35-35.927 15.839-53.799l1.754-5.749 1.086-3.515.957-3.113C449 25 449 25 451 22c1.885-.768 1.885-.768 4.191-1.316l2.583-.624 2.788-.622 2.901-.655c14.22-3.114 27.887-3.951 42.411-3.97zm-28.649 4.798-4.998.813c-3.025.474-6.03 1.016-9.04 1.576l-2.881.444c-5.183 1.053-5.183 1.053-8.744 4.717-1.058 2.588-1.848 5.137-2.562 7.839l-1.273 3.738-1.102 3.574-.625 2.029-6.402 22.041-5.035 17.492-.884 3.039-5.356 17.786a592 592 0 0 0-8.046 28.579c-2.099 8.184-4.428 16.291-6.829 24.391l-4.154 14.346-.753 2.681c-.654 2.396-.654 2.396-.54 5.304h40l15.75-38.187 1.359-3.355c1.004-2.335 1.004-2.335.891-4.457 2.35.18 2.35.18 5 1 1.359 2.199 1.359 2.199 2.395 5.117l1.196 3.254 1.222 3.503 2.605 7.109 1.302 3.58c1.83 4.914 3.842 9.741 5.905 14.561l1.038 2.437L489 180c15.348.2 30.665-.412 46-1-1.337-6.708-3.269-12.898-5.695-19.285l-1.068-2.854-3.362-8.924-2.285-6.092L517 127l1.866-.611 2.451-.809 2.428-.798c9.26-3.211 16.394-8.944 23.255-15.782l2.156-2.086c11.454-11.85 16.883-28.407 17.281-44.664-.41-12.554-3.592-21.456-11.75-30.937-20.135-17.326-52.516-16.088-77.462-11.702z"/>
        <path fill="#0f1016" d="m126.875 16.75 3.867-.016h10.938l3.373-.012 3.087.019 2.709.005C153 17 153 17 155 19c-.431 6.133-3.008 12.208-5.187 17.902l-.919 2.436-1.916 5.039-2.923 7.734-1.867 4.916-.878 2.336C139.23 64.77 139.23 64.77 137 67a88 88 0 0 1-7.367.414l-2.252.059-7.256.152-4.94.115L81 68l-.38 1.756C79.274 75.898 77.687 81.943 76 88l1.948-.217c9.772-.959 19.495-.896 29.302-.846l5.184.014L125 87c.976 3.75.963 6.169-.145 9.871l-.803 2.74-.865 2.826-.83 2.814-1.625 5.369-1.744 5.977L118 119l-3 1c1.27-7.033 3.012-13.801 5.125-20.625l.84-2.754L123 90c-25.517.609-25.517.609-51 2 .664-5.632 1.954-10.924 3.5-16.375l.684-2.48C77.869 67.131 77.869 67.131 79 66c7.027-1.164 14.157-1.135 21.258-1.098l3.118.004 9.749.031 6.656.014L136 65l.289-1.923c.984-4.257 2.539-8.237 4.09-12.316l1.005-2.669 3.179-8.405 2.154-5.713L152 20c-52.601.681-52.601.681-105 5l-.699 2.973c-1.616 6.737-3.332 13.353-5.613 19.902C36.842 59.068 34.006 70.56 31 82l-1.066 4.021-10.5 40.631-1.998 7.826-9.305 38.445C7.093 177.814 7.093 177.814 6 180l38-1 2-10a176 176 0 0 1 2.68-8.098l.77-2.179 1.609-4.509 2.422-6.825 3.859-10.579a154 154 0 0 0 1.654-4.836l.89-2.469.676-2.033c3.285-3.353 9.837-2.516 14.296-2.584l5.332.016 2.858.004 8.955.031 6.105.014L113 125c-2.44 2.44-3.183 2.285-6.542 2.411l-2.851.121-3.084.101-3.153.126-9.996.366-6.766.262L64 129l-.549 1.579-5.695 16.354-2.121 6.093-3.061 8.788-.947 2.725-1.787 5.084-1.632 4.74c-1.903 5.48-1.903 5.48-4.957 7.076-5.812 1.006-11.37 1.686-17.277 1.66l-3.896-.01-4.014-.025-4.096-.014L4 183c-.809-3.325-1.102-5.71-.25-9.027l.583-2.348.667-2.562 1.43-5.738.78-3.112 3.089-13.227c3.232-14.132 6.733-28.19 10.326-42.235l.696-2.728a1363 1363 0 0 1 15.073-54.25l2.408-8.081 1.553-5.184.717-2.418C43.423 24.297 43.423 24.297 45 22c2.798-.793 5.261-1.269 8.125-1.625l2.692-.357c23.637-2.926 47.273-3.217 71.058-3.268"/>
        <path fill="#0f1018" d="m234.125 15.75 2.622-.016h7.448l2.295-.012c5.279.047 5.279.047 7.509 2.278.249 2.258.249 2.258.247 5.133l.013 3.298-.017 3.637.006 3.82-.013 10.418-.007 10.978-.023 18.525-.02 21.184-.015 22.752-.003 6.434-.615 44.263-.117 3.792-.125 3.452-.108 3.047C253 181 253 181 252 182l-4.229.221-2.72.07-2.958.06-3.015.07-6.325.136-9.718.224-6.129.133-2.958.072-2.72.051-2.407.051C207 183 207 183 206 182l.121-6.004.146-3.682.17-3.877.158-3.889L207 155l-2 1a175 175 0 0 1-7.414.098l-2.211-.004-7-.031-4.742-.014L172 156c7.164-4.776 18.347-3.129 26.688-3.062l3.318.014L210 153l.063 8.438.025 2.373.01 2.373.016 2.142c-.166 3.906-.682 7.789-1.114 11.674h41l1-161c-29.047-.77-29.047-.77-59 4-1.277 1.53-1.277 1.53-2.176 3.525l-1.147 2.277-1.204 2.499-1.288 2.59-4.122 8.422-2.868 5.82c-6.729 13.683-13.228 27.462-19.565 41.331l-8.482 18.061L119 178c21.786 2.554 21.786 2.554 41.927-3.01 4.4-5.227 6.65-11.36 8.073-17.99l3 1-5.375 10.375-1.539 2.984-1.484 2.852-1.365 2.634C161 179 161 179 159 181c-1.873.241-1.873.241-4.174.227h-2.608l-2.819-.031-2.884-.009-9.14-.062-6.187-.027L116 181c-1.332-4.297-.288-6.291 1.621-10.379l.881-1.913 2.936-6.27 2.052-4.43 4.321-9.298 6.294-13.693 1.008-2.215 2.007-4.41 7.961-17.39 2.612-5.698 25.2-52.948 5.987-12.373 2.692-5.583 3.23-6.759 1.463-2.988 1.243-2.594c2.576-3.555 5.853-3.944 10.019-4.691 12.172-1.48 24.354-1.583 36.598-1.617z"/>
        <path fill="#0f1015" d="M1372 17c.96 3.669 1.042 5.84-.323 9.375l-.951 2.518-1.057 2.677-1.066 2.782-2.253 5.804-3.437 8.894-2.182 5.645-1.039 2.689-.98 2.499-.857 2.195C1357 64 1357 64 1355 67a74 74 0 0 1-8.312.477l-2.552.047-8.135.101-10.562.164-2.621.039c-8.621.146-17.214.619-25.816 1.172v-3c12.331-.888 24.642-1.288 37-1.562l19-.437 17-44c-29.837.324-59.502.898-89.224 3.652L1265 25l-.336 2.98c-.616 4.288-1.915 8.235-3.289 12.332-3.527 10.863-6.466 21.861-9.376 32.902l-2.709 10.212-2.978 11.199-.565 2.123-6.08 23.566-7.469 29.518-2.685 10.557-1.713 6.725-.808 3.181-.749 2.937-.657 2.579c-.468 1.747-1.015 3.473-1.587 5.189l29.992-.339 13.929-.158 13.461-.156 5.116-.056L1302 180l3.221-.064c5.035-.186 5.035-.186 8.921-3.122l1.249-2.888 1.452-3.196 1.407-3.418 1.524-3.435L1324 154l2.094-4.773L1330 140l-3.41.402c-17.601 2.043-34.876 2.748-52.59 2.598l1-7 3-1v4l54-2c1.351 4.442.622 6.595-1.437 10.688l-1.68 3.434-.921 1.871c-1.405 2.933-2.696 5.914-3.992 8.896l-3.122 6.967a99 99 0 0 0-2.977 7.258c-1.055 2.594-1.812 3.995-3.871 5.887-2.697.55-2.697.55-6.03.707l-3.816.183c-7.516.226-15.03.254-22.548.243l-5.179.003a6245 6245 0 0 1-10.753-.005 5295 5295 0 0 0-13.807.004 6096 6096 0 0 1-10.647 0 2893 2893 0 0 0-5.097.002 2054 2054 0 0 1-7.072-.007l-2.133.006c-4.805-.021-4.805-.021-5.919-1.136.612-6.369 2.197-12.561 3.652-18.781l.803-3.454 8.277-33.954 2.5-10.014 9.172-34.699 1.808-6.427c8.291-29.632 8.291-29.632 12.788-43.234l.843-2.573c1.902-5.609 1.902-5.609 4.157-7.864a98 98 0 0 1 7.605-1.07l2.435-.261 8.147-.794 2.834-.272c28.568-2.653 57.322-1.971 85.978-1.603z"/>
        <path fill="#0e0e14" d="m1199.188 15.813 3.494-.002c8.184.056 8.184.056 9.318 1.19-.385 6.546-2.27 11.887-4.762 17.91l-1.159 2.874-2.475 6.105-6.514 16.22-1.318 3.306c-3.994 10.063-7.764 20.198-11.397 30.397l-.855 2.4L1169 139l3-1a190 190 0 0 1 6.504-.5l3.936-.25 4.123-.25c7.815-.481 15.611-.98 23.397-1.808 2.562-.241 5.093-.291 7.665-.254l2.539.027L1222 135c1.474 4.664.403 7.268-1.535 11.664l-.836 1.917-1.778 4.009-2.654 6.023A465 465 0 0 1 1210 170l-1.575 3.374-1.507 3.017-1.3 2.634C1204 181 1204 181 1201.243 181.852c-2.972.283-5.877.269-8.859.179-2.601-.035-5.169.076-7.767.214-16.427.846-32.86.861-49.305.879l-3.464.008q-4.899.007-9.797 0l-3.03.006-2.762-.009-2.429-.002C1112 183 1112 183 1111 182c-.065-8.736 2.645-17.301 4.813-25.687l1.041-4.107L1124 125l1.605-6.027c6.73-25.191 13.814-50.256 21.332-75.223l.87-2.9 2.47-8.178.744-2.48.701-2.299.604-1.995c.739-2.081 1.582-3.977 2.673-5.898 3.103-1.4 6.646-1.566 10-2l2.009-.273c10.725-1.418 21.362-1.907 32.179-1.914zm-32.437 5-2.302.212c-2.705.317-4.952.667-7.288 2.116-1.721 2.758-2.581 5.699-3.473 8.797l-.641 2.144-1.355 4.577-2.066 6.826c-4.191 13.668-7.956 27.451-11.726 41.24l-2.931 10.539-6.595 24.644-5.035 18.909-7.275 28.184-.641 2.68c-1.037 4.115-1.037 4.115-1.422 8.32l28.663.052 13.313.024 12.877.019 4.883.011c7.561.024 15.117-.005 22.67-.388l3.061-.153c3.064-.684 3.947-1.605 5.708-4.151a80 80 0 0 0 2.137-4.789l1.183-2.549c1.222-2.672 2.365-5.368 3.504-8.076l2.395-5.383 4.207-9.836.823-1.998c.729-1.947.729-1.947.576-4.783l-1.843.164-32.407 2.399-6.051.42L1165 142c12.348-36.907 25.158-73.636 40.192-109.548l1.527-3.671 1.342-3.186c1.11-2.606 1.11-2.606.939-5.596-21.151-.387-21.151-.387-42.25.813z"/>
        <path fill="#0c0c12" d="m876.066 17.902 2.786.004 8.71.031 5.947.014L908 18c1.175 4.763.327 7.84-1.437 12.313l-.736 1.955L904 37h-2c.44-4.14 1.19-7.81 2.543-11.754l.825-2.42L906 21l-15.686.372-5.324.125c-13.523.301-13.523.301-26.99 1.503l-.387 2.504c-.675 3.846-1.525 7.636-2.426 11.434l-.463 1.994c-1.248 5.292-2.64 10.541-4.048 15.793-7.016 26.185-13.542 52.449-19.286 78.941l-7.648 33.13L821 179l40 1 4-17 2.5-8.562c1.965-6.461 3.689-12.954 5.244-19.526 1.155-4.811 1.155-4.811 2.256-5.912 2.739-.089 5.453-.115 8.191-.098l2.484.004 7.887.031 5.334.014L912 129c-1.441 10.753-3.727 21.24-6.125 31.813L902 178l40 1 1-8a143 143 0 0 1 1.535-6.181l.941-3.49 1.016-3.7 1.05-3.869 2.204-8.076 2.8-10.281 2.172-7.981 1.527-5.611c1.74-6.342 3.603-12.595 5.754-18.81h2c-.35 6.415-1.844 12.202-3.712 18.312-2.607 8.591-4.877 17.269-7.169 25.949L944 181h-46c.68-6.12 1.492-11.896 2.813-17.867l.527-2.428 1.099-5.027 1.679-7.701 1.07-4.906.505-2.32c.656-2.974 1.344-5.859 2.307-8.75h-32l-1 7-1.488 6.316-.886 3.548-.938 3.698-.954 3.782c-6.089 24.01-6.089 24.01-7.734 25.655a63 63 0 0 1-4.244.205l-2.73.06-2.967.051-3.022.063-9.599.183-6.49.131L818 183c-.987-3.819-.926-6.476-.031-10.305l.72-3.157.811-3.413 1.695-7.355.903-3.873 2.581-11.448 10.403-43.791 6.105-25.471c2.191-9.625 4.55-19.184 7.143-28.708l2.244-8.467 1.613-6.074.758-2.907.723-2.69.634-2.395C855 21 855 21 857 19c6.176-1.401 12.769-1.135 19.066-1.098"/>
        <path fill="#f9fbfb" d="m766 897 7.644.008 6.768-.078c20.505-.315 32.753 3.159 49.412 15.736 3.403 2.501 6.884 4.821 10.435 7.104l1.826 1.174 3.594 2.303 8.318 5.402 2.787 1.818C859 932 859 932 861 934c-33.334 3.761-53.391-4.221-79.523-24.925l-2.191-1.748c-3.729-2.965-7.613-5.596-11.626-8.16L766 898z"/>
        <path fill="#4d565a" d="M643 247c9.867.607 19.636 1.588 29.445 2.813l4.283.527 8.879 1.099 11.365 1.402 8.802 1.086 4.193.517 5.834.725 3.344.415c2.349.343 4.57.783 6.854 1.417l-4.625 11.313-1.352 3.238L719 274l-1-2c-2.215-.367-4.451-.61-6.687-.812-9.779-.993-19.436-2.621-29.116-4.311-5.707-.991-11.375-1.948-17.142-2.517-11.848-1.226-11.848-1.226-15.43-4.59-1.572-2.558-2.599-4.957-3.625-7.77z"/>
        <path fill="#f8fafa" d="M513 60c2.862 2.9 3.453 5.097 3.5 9.125-.241 8.612-4.502 15.877-10.5 21.875-8.046 5.841-16.333 6.286-26 6 1.219-6.963 2.98-13.679 5.008-20.449.949-3.398 1.627-6.778 2.305-10.238 1.261-4.986 1.261-4.986 4.625-7.562 6.641-1.798 14.915-2.01 21.063 1.25z"/>
        <path fill="#f9fbfb" d="m600 781 15.722.001 5.688-.165c8.978-.072 13.892 4.872 20.039 10.718 2.276 2.122 4.688 4.06 7.113 6.008l12.125 9.938 3.074 2.531L666 812v1c-6.161.056-12.318.049-18.479-.005-1.959.004-3.917.088-5.872.205-8.717.171-13.985-5.877-19.918-11.547-2.16-2.062-4.368-4.068-6.579-6.075l-4.44-4.089c-3.07-2.818-6.207-5.548-9.383-8.246L600 782z"/>
        <path fill="#f7f9f9" d="M679 840c5.715-.097 11.205.247 16.875.938l4.492.527 2.162.272c2.442.29 2.442.29 4.792.339 6.931.321 11.163 2.484 16.749 6.455l2.446 1.67 7.609 5.299 5.211 3.574 9.426 6.533 1.9 1.33L752 868v1l-10.977.012c-3.55-.038-7.064.081-10.609.258-12.217.361-19.523-1.199-28.596-9.615l-3.922-3.84c-2.872-2.748-6.011-5.085-9.208-7.439-3.484-2.614-6.682-5.219-9.687-8.375z"/>
        <path fill="#0a0a10" d="m401.375 18.867 2.577-.003 5.334.005 8.202-.006 5.199.004 2.484-.006c5.714.024 5.714.024 6.829 1.139-.478 6.652-2.211 12.758-4.125 19.125l-.943 3.19-6.432 20.623c-3.515 10.888-6.597 21.88-9.629 32.911l-2.585 9.237L399 138.938l-1.006 3.777-4.986 18.899-1.883 7.137-.867 3.355-.812 3.067-.703 2.69C388 180 388 180 386 182a129 129 0 0 1-9.164-.023l-2.749-.076-8.712-.276-5.898-.172L345 181c2-2 2-2 5.715-2.227l4.792.032 2.547.009 8.07.062 5.465.027L385 179l.336-3.382c.627-4.981 1.923-9.692 3.293-14.513l1.641-5.897.864-3.09 4.206-15.505 19.723-70.363.931-3.161L428 24c-3.63-1.21-6.96-1.143-10.738-1.133l-2.298-.003q-2.407-.001-4.814.005a1525 1525 0 0 1-7.327-.006l-4.686.004-2.198-.006c-4.083.019-7.933.348-11.939 1.139l-.953 3.664L375 57l-.642 2.2L369 77h-2c.56-7.079 2.105-13.412 4.188-20.187l1.898-6.332.968-3.237c1.786-6.121 3.401-12.289 4.992-18.463l.693-2.616.595-2.298C381 22 381 22 383 20c5.959-1.33 12.298-1.148 18.375-1.133"/>
        <path fill="#09090f" d="m332.188 17.938 5.486.014L351 18c1.554 2.408 2.078 3.543 1.588 6.416l-.932 2.705-1.021 3.053-1.136 3.263-2.266 6.797-1.15 3.443c-1.567 4.803-2.969 9.646-4.334 14.51l-.727 2.583-1.374 4.909-3.024 10.634-.961 3.363L335 82l3.75-.5c8.708-.896 17.508-.583 26.25-.5v-2l3-1a99 99 0 0 1 0 5c-2.173 2.173-7.039 1.428-10.062 1.563l-2.708.129c-8.081.357-16.142.41-24.229.309.603-6.263 1.985-11.969 3.801-17.984l.841-2.839 1.768-5.92 2.666-8.952c2.82-9.489 5.675-18.953 8.923-28.306l-15.686.372-5.324.125c-13.523.301-13.523.301-26.99 1.503l-.386 3.042c-.55 3.837-1.448 7.527-2.434 11.278l-.544 2.087-1.158 4.424-3.06 11.755-.622 2.401-6.412 26.158-4.322 17.039c-2.33 8.655-4.294 17.383-6.25 26.129l-2.105 9.363-.477 2.146c-1.118 4.953-1.118 4.953-2.23 7.178h-2c.652-7.218 1.993-14.125 3.598-21.187l.799-3.552 9.08-37.449 2.869-11.429 4.714-18.661 2.867-11.468 1.859-7.379.847-3.45.809-3.183.695-2.786c.925-2.634 2.009-4.379 3.863-6.457 9.309-2.841 21.489-1.109 31.188-1.062z"/>
        <path fill="#121219" d="m1199.188 15.813 3.494-.002c8.184.056 8.184.056 9.318 1.19-.395 4.735-.965 8.659-3 13h-3l3-10c-17.413.416-34.681 1.011-52 3l-.445 2.211a164 164 0 0 1-5.367 19.227c-2.947 8.573-5.352 17.244-7.691 26l-4.434 15.875-2.233 7.789-1.614 5.63c-4.911 17.145-9.324 34.391-13.591 51.706l-2.824 11.418-1.733 7.021-.781 3.152-.683 2.773C1115 178 1115 178 1114 180h44v1l-19.116.055-6.507.021-9.338.022-2.952.016h-2.73l-2.409.007C1113 181 1113 181 1111 180c.696-8.049 2.821-15.758 4.813-23.562l1.041-4.135L1124 125l1.605-6.027c6.73-25.191 13.814-50.256 21.332-75.223l.87-2.9 2.47-8.178.744-2.48.701-2.299.604-1.995c.739-2.081 1.582-3.977 2.673-5.898 3.103-1.4 6.646-1.566 10-2l2.009-.273c10.725-1.418 21.362-1.907 32.179-1.914z"/>
        <path fill="#09090f" d="m1023.363 20.832 2.646-.01 5.499-.007 8.439-.039 5.354-.006 2.554-.022c5.917.023 5.917.023 8.146 2.252-.37 5.334-1.859 10.151-3.547 15.18l-.767 2.336-2.436 7.359-3.172 9.617-.788 2.399c-2.606 7.986-4.966 16.037-7.29 24.109l-1.555 5.305-8.32 30.07-.941 3.476c-2.128 7.977-2.128 7.977-2.184 16.149 2.918 2.918 5.189 2.301 9.25 2.313l3.953.051c4.047-.387 6.399-1.162 9.797-3.363 1.641-1.891 1.641-1.891 2.688-4.125l1.223-2.387c1.378-3.146 2.417-6.328 3.316-9.641C1056 120 1056 120 1059 118c-.162 8.085-3.611 15.314-8 22-5.591 4.324-9.965 5.219-16.875 5.313l-2.145.088c-3.421.041-5.879-.353-8.988-1.795-3.126-4.089-2.627-7.636-1.992-12.605.864-4.606 2.027-9.103 3.25-13.625l1.069-4.038C1033.18 83.926 1042.474 54.906 1052 26c-2.286-1.143-3.543-1.121-6.083-1.114h-2.548l-2.753.016-2.816.004-8.926.031-6.043.014L1008 25l-.387 2.208c-1.783 10.02-1.783 10.02-3.051 14.417l-.684 2.477L1003 46l-3 1c.57-5.762 1.707-10.94 3.5-16.437l.684-2.178c1.673-5.241 1.673-5.241 2.816-6.385 5.469-1.014 10.812-1.161 16.363-1.168"/>
        <path fill="#0a0a11" d="m1107.414 17.87 6.641-.006 4.297.004 3.87.003c11.027.378 11.027.378 12.779 2.129.374 5.664-.664 10.369-2.187 15.75l-1.398 5.113-.722 2.608-2.426 9.223c-3.199 12.395-6.769 24.684-10.313 36.984l-2.52 8.869-3.634 12.695-1.688 5.875c-11.013 38.417-11.013 38.417-24.111 51.883l-1.82 1.938c-7.638 7.414-17.583 11.703-28.18 12.063 2.403-2.815 4.564-3.71 8.063-4.812 15.207-5.337 23.723-14.926 30.668-29.109 14.329-31.039 21.088-66.657 29.632-99.623 2.392-9.206 4.904-18.341 7.638-27.455h-48v2h-2l1-5c8.149-1.013 16.217-1.154 24.414-1.13z"/>
        <path fill="#f6f9f9" d="m544 727 8.563.438 2.424.119 2.393.127 2.174.111L562 728l3.391.16c4.701 1.094 6.728 3.167 9.98 6.59l1.719 1.737 5.348 5.513 3.662 3.719c8.9 9.069 8.9 9.069 8.9 10.281-23.992 2.254-23.992 2.254-30.152-2.613-2.632-2.661-4.77-5.619-6.784-8.767-1.435-2.184-3.152-4.031-4.939-5.932-3.248-3.743-6.215-7.679-9.125-11.687z"/>
        <path fill="#f6f8f8" d="M211 68h1c1.02 9.595 1.12 19.117 1.063 28.75l-.014 4.461L213 112h-25c1.633-4.083 3.444-7.877 5.52-11.734l1.032-1.932 2.161-4.034 3.259-6.089z"/>
        <path fill="#13141c" d="m450 27 2 1-.54 1.785-4.908 16.66-7.615 25.179c-2.438 7.578-4.564 15.215-6.617 22.905-1.798 6.683-3.768 13.298-5.82 19.907-2.65 8.556-5.01 17.153-7.222 25.832-2.591 10.104-5.531 20.101-8.504 30.098L408 180h18l-1 2c-4.203 1.259-8.466 1.117-12.812 1.063l-2.1-.014L405 183c-.942-3.669-.995-6.072.061-9.701l.781-2.747.877-2.951.896-3.109 2.886-9.868 1.859-6.43 10.284-34.437 5.794-20.008 10.52-36.276 2.144-7.179 3.274-10.92 1.011-3.416.949-3.123.83-2.764C448 28 448 28 450 27"/>
        <path fill="#010203" d="M252 37h1c1.093 21.681 1.156 43.339 1.13 65.042l.003 14.557-.579 52.597-.117 3.653c-.308 8.023-.308 8.023-1.437 9.152a64 64 0 0 1-4.229.221l-2.72.07-2.958.06-3.015.07-6.325.136-9.718.224-6.129.133-2.958.072-2.72.051-2.407.051C207 183 207 183 206 182c-.017-2.002.037-4.004.121-6.004l.146-3.682.17-3.877.158-3.889L207 155l-2 1a175 175 0 0 1-7.414.098l-2.211-.004-7-.031-4.742-.014L172 156c7.164-4.776 18.347-3.129 26.688-3.062l3.318.014L210 153l.063 8.438.025 2.373.01 2.373.016 2.142c-.166 3.906-.682 7.789-1.114 11.674h41v-15l.48-8.831c.71-11.949.749-23.901.836-35.868l.063-7.25.153-18.884.161-19.349z"/>
        <path fill="#0c0d12" d="m987 19 1 1-.375 4.438-.273 2.434C987 29 987 29 986 31h-2l1-7c-3.63-1.21-6.96-1.143-10.738-1.133l-2.298-.003q-2.407-.001-4.814.005a1525 1525 0 0 1-7.327-.006l-4.686.004-2.198-.006c-4.083.019-7.933.348-11.939 1.139l-.579 2.18c-6.295 23.659-6.295 23.659-9.448 33.515-1.63 5.539-2.965 11.155-4.311 16.769l-.611 2.52-.542 2.272C925 83 925 83 924 84c-2.735.232-5.451.404-8.191.535l-2.484.13-7.887.397-5.334.275L887 86l1.898-7.691.537-2.187C890.644 71.253 891.94 66.589 894 62l2-1c-.5 7.494-2.438 13.957-5 21l2.719-.219c9.447-.703 18.81-.893 28.281-.781l.371-2.949c.627-4.359 1.621-8.594 2.691-12.863l.64-2.563c2.756-10.763 6.128-21.342 9.467-31.935a230 230 0 0 0 2.006-6.888C938 21 938 21 939 20c15.812-2.41 32.089-2.67 48-1"/>
        <path fill="#10101a" d="m321.51 128.886 4.681.016 2.484.004 7.887.031 5.334.014L355 129l-.93 5.703-.523 3.208c-.666 3.761-1.555 7.402-2.547 11.089h-2l.375-5.125.211-2.883C350 138 350 138 352 132h-32l-3 15-3 10.75-1.574 5.383-.748 2.54-3.135 11.366c-.462 1.669-.995 3.318-1.543 4.961l-19.171.482-6.527.166-9.36.231-2.967.082-2.73.061-2.416.061C262 183 262 183 261 182c-.412-5.253.343-8.461 3-13h1l-1 11h40l4-17 2.5-8.562c1.965-6.461 3.689-12.954 5.244-19.526 1.413-5.885 1.413-5.885 5.766-6.025z"/>
        <path fill="#0b0b0f" d="M214 59h1c1.214 18.665 1.095 37.307 1 56h-32c1.555-4.664 3.266-8.705 5.563-12.988l1.054-1.99L194 93.688l1.157-2.168C210.799 62.201 210.799 62.201 214 59m-3 9-1.25 2.348L204 81.125l-1.037 1.943c-4.437 8.305-8.935 16.559-13.74 24.659-1.381 2.137-1.381 2.137-1.223 4.273h25l.055-13.013.021-4.41c.052-8.906-.132-17.709-1.075-26.577z"/>
        <path fill="#0c0c13" d="M512.438 56.688c3.367 1.966 5.245 3.526 6.563 7.313 1.241 8.815-1.582 15.664-5.812 23.25-5.991 7.532-12.85 11.132-22.125 13.5-4.687.383-9.363.325-14.062.25-.8-3.287-1.097-4.71 0-8l3-1v5c9.81-.342 20.886-1.468 28-9 4.174-5.815 7.282-11.254 7.313-18.562l.051-2.816c-.429-3.097-1.157-4.424-3.363-6.621-5.853-2.374-13.405-1.182-19.562-.75-3.715 2.667-3.836 6.064-4.715 10.418-1.076 4.962-2.89 9.607-4.723 14.332h-2c.618-5.744 1.579-11.23 3.063-16.812l.506-2.271c1.437-5.306 1.437-5.306 4.294-7.058 2.035-.77 4.024-1.35 6.137-1.858 5.802-1.934 11.84-1.883 17.438.688z"/>
        <path fill="#191924" d="M301 22c-.578 5.291-1.458 10.259-2.82 15.418l-.544 2.082-1.158 4.406-3.06 11.715-.622 2.391-6.412 26.133-4.322 17.038c-2.33 8.655-4.294 17.383-6.25 26.129l-2.105 9.363-.477 2.146c-1.118 4.953-1.118 4.953-2.23 7.178h-2c.652-7.218 1.993-14.125 3.598-21.187l.799-3.552 9.08-37.449 2.869-11.429 4.709-18.647 2.417-9.63 2.376-9.418.872-3.526.819-3.212.711-2.833C298.02 22.944 298.518 22 301 22"/>
        <path fill="#12121c" d="m1249 74 2 1c-2.157 9.74-4.626 19.348-7.375 28.938-3.103 10.867-5.72 21.801-8.203 32.824-1.982 8.785-4.196 17.512-6.422 26.238l-3-2c.679-6.983 2.264-13.604 3.984-20.398l.901-3.603 1.896-7.539 2.851-11.362 9.431-35.776c.534-1.894 1.037-3.8 1.443-5.726L1247 75z"/>
        <path fill="#090913" d="m80.188 124.902 2.858.004 8.955.031 6.105.014L113 125c-2.44 2.44-3.183 2.285-6.542 2.411l-2.851.121-3.084.101-3.153.126-9.996.366-6.766.262L64 129l-.549 1.579-5.695 16.354-2.121 6.093-3.061 8.788-.947 2.725-1.787 5.084-1.635 4.737c-1.907 5.474-1.907 5.474-4.893 7.141-3.864.583-7.407.635-11.312.5 1-2 1-2 2.625-2.625 3.141-.496 6.201-.436 9.375-.375l.633-3.934c1.439-7.181 3.955-13.976 6.425-20.853l2.422-6.825 3.859-10.579a154 154 0 0 0 1.654-4.836l.89-2.469.676-2.033c4.043-4.128 14.181-2.6 19.628-2.569z"/>
        <path fill="#f1f3f4" d="M1108 476c-14.128 7.227-24.111 9.763-39.48 4.898L1066 480c10.522-8.554 30.138-11.908 42-4"/>
        <path fill="#06060b" d="M979 124h1c-.853 12.069-.853 12.069-1.562 16.563-1.333 10.475-.804 19.65 5.035 28.727 6.954 8.779 16.614 11.681 27.344 13.215 14.224 1.616 28.978 1.03 43.184-.504-1 2-1 2-2.749 2.622-7.163 1.468-14.18 1.718-21.481 1.694a430 430 0 0 0-6.008.046c-14.348.007-26.287-2.548-38.512-10.049-8.498-8.735-10.549-18.408-10.489-30.16.159-7.54.511-15.448 4.239-22.153z"/>
        <path fill="#13141c" d="M533 122c-2.319 2.679-4.318 3.662-7.687 4.688l-2.449.762L521 128l10.688 30.125.879 2.396c1.82 4.923 3.747 9.781 5.902 14.569.649 2.334.35 3.654-.469 5.91-1 1-1 1-2.766 1.114l-2.269-.016-2.451-.01-2.576-.025-2.588-.014L519 182v-1l-13-1v-1h29l-3.684-10.105-3.525-9.7-2.453-6.736-3.522-9.688-1.111-3.037-1.031-2.85-.908-2.497c-.785-2.445-1.311-4.86-1.766-7.386l6.313-3.062 3.551-1.723C530 121 530 121 533 122"/>
        <path fill="#f4f7f7" d="m1036 492-1.734 1.289-4.219 3.422c-8.741 6.333-17.897 3.936-27.988 2.352-4.791-.794-4.791-.794-7.059-3.062 14.12-5.744 25.888-7.9 41-4z"/>
        <path fill="#090a13" d="M559 156h1c.27 7.835-.792 15.269-2 23 10.955 1.671 21.651 2.291 32.728 2.206l7.403-.02c9.005-.021 17.9-.314 26.869-1.186v2l-5 .938-2.812.527C597.154 186.828 575.88 186.082 556 182c-1.575-1.575-1.17-3.127-1.187-5.312.07-6.953.263-14.8 4.188-20.687z"/>
        <path fill="#08080a" d="M1228 160c.215 5.231-.476 9.438-2 14.438l-1.125 3.746L1224 181l29.992-.339 13.929-.158 13.461-.156 5.116-.056c14.449.304 14.449.304 28.503-2.291l-1 4c-10.821.959-21.541 1.148-32.395 1.133l-5.179.003a6245 6245 0 0 1-10.753-.005 5295 5295 0 0 0-13.807.004 6096 6096 0 0 1-10.647 0 2893 2893 0 0 0-5.097.002 2054 2054 0 0 1-7.072-.007l-2.133.006c-4.805-.021-4.805-.021-5.919-1.136.543-4.843 1.456-9.603 2.438-14.375l.746-3.711L1225 161c2-1 2-1 3-1"/>
        <path fill="#191a24" d="M1080 34h1c.134 4.761-.248 8.881-1.391 13.5l-.894 3.662-.965 3.838-.983 3.976L1074 70l-.595 2.364c-1.072 4.23-2.225 8.435-3.405 12.636l-.912 3.267-2.667 9.486-1.605 5.704-1.012 3.554-.907 3.202c-.782 2.427-1.68 4.554-2.898 6.786h-2c.572-5.385 1.51-10.342 3.004-15.566l.603-2.134 1.286-4.521 3.392-12.013.692-2.465c2.979-10.657 5.7-21.379 8.429-32.102 3.301-12.906 3.301-12.906 4.594-14.199z"/>
        <path fill="#12131b" d="m878.51 128.886 4.681.016 2.484.004 7.887.031 5.334.014L912 129l-3 1v2h-33l-1 7-1.488 6.316-.886 3.548-.938 3.698-.951 3.78c-2.093 8.266-4.266 16.495-6.736 24.657l-4 1 1.285-4.773.849-3.155 1.872-6.947 4.982-18.606.959-3.598 1.831-6.905.84-3.145.738-2.783c1.073-3.472 1.237-3.074 5.155-3.201z"/>
        <path fill="#07080c" d="m619 134 1 3c-8.573 8.134-17.408 8.445-28.875 8.25l-3.645-.016c-18.253-.159-18.253-.159-24.48-2.234l-2 16-3-2 .938-7.937.264-2.287c.686-5.662.686-5.662 1.799-6.775 2.19.096 4.378.256 6.563.438 27.048 2.863 27.048 2.863 51.438-6.437z"/>
        <path fill="#07070a" d="M1297 70c1.564 3.974.361 6.814-.937 10.75l-1.152 3.547L1294 87l2.375-.494c4.566-.638 9.013-.63 13.617-.604l2.866.004 9.016.031 6.133.014L1343 86c1.125 4.75 1.125 4.75 0 7h-2v-4l-16.486.372-5.595.125c-14.487.287-14.487.287-28.92 1.503 2.85-16.85 2.85-16.85 7-21z"/>
        <path fill="#161724" d="M1000 48c1.113 3.338.897 4.138-.074 7.395l-.768 2.623-.846 2.795-.85 2.887-1.695 5.721C990.481 87.174 985.741 105.094 981 123h-2c.624-6.903 1.865-13.456 3.5-20.187l.777-3.221C986.658 85.913 990.782 72.441 995 59l.866-2.801c1.895-5.96 1.895-5.96 4.134-8.199"/>
        <path fill="#000001" d="M1341 94h1c-.906 9.738-4.591 18.91-8 28l-51 1-4 11h-2c.562-5.507 1.711-8.66 4-14h51l1-5c.894-3.07 1.923-6.093 2.938-9.125l.803-2.457.787-2.363.711-2.141C1339 97 1339 97 1341 94"/>
        <path fill="#f4f6f7" d="m1161 455 2.527.246L1169 456l-5 4-1.762 1.379c-6.243 4.445-11.45 4.347-18.84 3.227-4.348-.849-4.348-.849-6.398-1.605l-1-2c8.584-4.652 15.228-6.987 25-6z"/>
        <path fill="#101016" d="m198.688 152.938 3.318.014L210 153c.185 19.005.185 19.005-1 27h8l-1 3-4.437.063-2.496.035C207 183 207 183 206 182c-.017-2.002.037-4.004.121-6.004l.146-3.682.17-3.877.158-3.889L207 155l-2 1a175 175 0 0 1-7.414.098l-2.211-.004-7-.031-4.742-.014L172 156c7.164-4.776 18.347-3.129 26.688-3.062"/>
        <path fill="#1c1d24" d="M827 56c1.662 4.055.209 6.779-1.375 10.688l-1.398 3.512C823 73 823 73 822 74l-6.317-.729c-4.702-.475-9.399-.455-14.121-.458l-2.947-.037c-6.437-.013-12.36.711-18.615 2.225.781-1.922.781-1.922 2-4 11.894-4.248 26.917-2.654 39 0l.41-2.203a73 73 0 0 1 2.027-7.547l.746-2.359C825 57 825 57 827 56"/>
        <path fill="#0d0e15" d="M147 38c1.245 3.735.572 4.844-.801 8.473l-1.213 3.225-1.299 3.365-1.264 3.377c-3.151 8.288-3.151 8.288-5.423 10.56a87 87 0 0 1-7.414.195l-2.211-.009-7-.062-4.742-.027L104 67l1-2h31l1-5c1.194-3.627 2.577-7.182 3.938-10.75l1.092-2.941 1.061-2.793.965-2.554C145 39 145 39 147 38"/>
        <path fill="#141529" d="M1120 151c-.251 10.368-3.123 18.644-6 29h44v1l-19.116.055-6.507.021-9.338.022-2.952.016h-2.73l-2.409.007C1113 181 1113 181 1111 180c.654-6.299 1.899-12.298 3.438-18.437l.658-2.756.65-2.615.584-2.369c.737-2.005 1.393-2.823 3.67-2.823"/>
        <path fill="#1f202b" d="m7 167 2 1-3 12h27v3H4c-.873-4.365-1.044-6.136-.187-10.25l.52-2.641L5 168z"/>
        <path fill="#010102" d="m1355 62 1 4c-2.056 2.056-6.38 1.234-9.215 1.281l-2.557.056-8.166.163c-13.042.255-26.043.681-39.062 1.5v-3c8.748-.643 17.472-1.084 26.242-1.246l2.634-.05 10.762-.18 7.979-.144 2.468-.025c4.427.076 4.427.076 7.915-2.353z"/>
        <path fill="#0d0d11" d="M137 128h3c-.84 6.641-3.568 12.249-6.355 18.251l-2.633 5.825-1.715 3.717-1.552 3.391c-1.914 3.087-3.512 4.248-6.745 5.816 1.445-4.609 3.252-8.98 5.258-13.367l.933-2.059 2.934-6.448 1.996-4.398z"/>
        <path fill="#0f0f15" d="m209 67 3 1-23 42-2-1c1.653-5.974 4.636-11.116 7.625-16.5l1.618-2.94z"/>
        <path fill="#16161f" d="m378 32 1 2 2 1-12 42h-2c.56-7.294 2.23-13.833 4.375-20.812C373.805 48.17 376.039 40.146 378 32"/>
        <path fill="#000003" d="M264 169h1l-1 11h38l1 2-17.462.482-5.945.166-8.526.231-2.702.082L262 183c-1-1-1-1-1.25-4.187.265-4.038 1.226-6.354 3.25-9.812z"/>
        <path fill="#2d2e38" d="m169 157 3 1-5.375 10.375-1.539 2.984-1.484 2.852-1.365 2.634C161 179 161 179 159 181a82 82 0 0 1-7.195.195l-2.144-.009-6.786-.062-4.598-.027L127 181v-1l21-1v-1l1.972.135c2.935-.007 5.23-.223 8.028-1.135 2.818-2.971 4.405-6.374 6.125-10.062l1.453-2.877A278 278 0 0 0 169 157"/>
        <path fill="#141524" d="M875 129h37l-3 1v2l-35 1z"/>
        <path fill="#0c0d13" d="M301 22c-.633 6.673-2.182 12.87-4 19.313l-.828 2.994c-.997 3.59-1.994 7.158-3.172 10.693h-2c.686-6.984 2.234-13.637 3.938-20.437l.803-3.334.787-3.162.711-2.877c.771-2.216 1.231-3.19 3.762-3.19z"/>
        <path fill="#0d0d13" d="M429 100c-.443 7.238-1.861 13.73-4.062 20.625l-.854 2.754L422 130l-3-1c3.894-19.412 3.894-19.412 7-28 2-1 2-1 3-1"/>
        <path fill="#0b0b12" d="M1341 94h1c-.901 9.69-4.467 18.991-8 28l-5-1 3-1 .316-1.93c.927-4.164 2.268-8.152 3.621-12.195l.803-2.457.787-2.363.711-2.141C1339 97 1339 97 1341 94"/>
        <path fill="#0e0e16" d="M962 103h2c-.423 7.757-2.57 14.734-4.844 22.109-.9 2.942-1.63 5.855-2.156 8.891l-1-2h-2c2.36-9.779 4.916-19.42 8-29"/>
        <path fill="#0e0e18" d="M972 71h1c.554 6.15-1.446 11.482-3.312 17.25l-.936 3.047-.928 2.906-.841 2.646C966 99 966 99 963 101c1.171-6.598 2.741-13.038 4.5-19.5l.647-2.429c1.615-5.833 1.615-5.833 3.853-8.071"/>
        <path fill="#2c2d30" d="M625 180v2l-5 .938-2.812.527c-8.809 1.479-17.254 1.655-26.187 1.598l-4.082-.014L577 185v-1l2.459-.06 11.103-.315 3.869-.094c6.194-.193 11.721-.432 17.568-2.531 4.391-.915 8.517-1.09 13-1z"/>
        <path fill="#040507" d="M1202 179v2c-11.949 1.467-23.986 1.095-36 1l1-2c23.582-1.194 23.582-1.194 35-1"/>
        <path fill="#14152b" d="M680 64v1h-11v2l-20 3v-3c10.344-3.469 20.242-3.304 31-3"/>
        <path fill="#1d1d2b" d="m283 81 1 2h2c-1.3 7.772-3.005 15.377-5 23l-3-1c.605-5.656 1.622-11.002 3.063-16.5l.564-2.203z"/>
        <path fill="#121216" d="m673 153 1 2c-5.454 6.999-12.412 14.137-21 17 .342-2.808.759-3.799 2.969-5.641l2.531-1.609c5.263-3.496 9.879-7.453 14.5-11.75"/>
        <path fill="#000001" d="m137 63 1 3c-1 1-1 1-4.143 1.114l-4.174-.016-2.215-.004-7.031-.031-4.756-.014L104 67l1-2 2.83-.076 10.36-.296 4.49-.125 6.441-.186 3.92-.111c2.845.128 2.845.128 3.959-1.205z"/>
        <path fill="#090a11" d="m203 153-1 2c-3.968.91-7.777 1.119-11.836 1.098l-3.223-.01-3.316-.025-3.387-.014L172 156c8.036-5.357 21.577-3.099 31-3"/>
        <path fill="#090911" d="M984 32c1.221 3.497.769 5.525-.434 8.984l-.967 2.832-1.037 2.934-1.025 2.98L978 57h-2c.647-5.478 1.875-10.59 3.438-15.875l.658-2.336c.571-1.949 1.231-3.872 1.904-5.789z"/>
        <path fill="#000001" d="M451 174c.625 1.75.625 1.75 1 4l-2 4h-25l1-2h22l2-5z"/>
        <path fill="#0d0e18" d="M985 99h1c-.584 8.316-2.738 16.015-5 24h-2c1.333-19.333 1.333-19.333 6-24"/>
        <path fill="#101017" d="M1007 25c1.473 4.419-.015 7.739-1.25 12.125l-.66 2.535-.668 2.41-.606 2.211L1003 46l-3 1c.57-7.267 2.355-14.203 5-21z"/>
        <path fill="#16161f" d="M79 69h1c.229 4.717-.538 8.397-2 12.875l-1.125 3.492L76 88h5v1c-5.75.125-5.75.125-8-1 2.742-15.742 2.742-15.742 6-19"/>
        <path fill="#000003" d="M691 62h1v5c-1 1-1 1-3.133 1.022l-2.777-.143-2.998-.146-3.154-.17-3.166-.158L669 67v-2l7.188-.062 2.041-.025c3.726-.018 7.15.195 10.771 1.088z"/>
        <path fill="#090912" d="M902 38h1c-.638 6.857-2.413 13.622-5 20l-3 2c.691-7.603 2.746-15.62 7-22"/>
        <path fill="#161729" d="m735 181 2.383.465c4.495.665 8.956.889 13.492 1.098l2.664.131L760 183v1h-10v2l-6.25-.375-3.516-.211c-2.941-.377-4.734-.891-7.234-2.414h2z"/>
        <path fill="#07070e" d="M466 134h5l-1 3-2-1-.586 2.047-.789 2.703-.773 2.672c-.785 2.377-1.523 4.456-2.852 6.578l-3 1c.655-4.058 1.946-7.54 3.563-11.312l1.379-3.238z"/>
        <path fill="#07080d" d="M827 56c1.617 4.017.306 6.777-1.187 10.688L824.52 70.2C823 73 823 73 820.824 73.895L819 74v-2h2l.313-2.437c.831-4.305 1.917-8.539 3.688-12.562l2-1z"/>
        <path fill="#04050a" d="M506 56v1l-3.43.664-4.445.961-2.262.426c-2.47.498-2.47.498-5.863 1.949-1.617 3.01-1.617 3.01-2 6h-2l1-8c6.529-2.957 11.874-3.354 19-3"/>
        <path fill="#181924" d="m485 175 3 1 1 4h10v1l6 1v1l-8.312.313-2.381.127c-2.205.047-4.15.03-6.307-.439-2.493-2.846-3-4.224-3-8z"/>
        <path fill="#0c0c11" d="M11 150h1c.428 6.415-1.143 11.886-3 18H6c1.3-14.3 1.3-14.3 5-18"/>
        <path fill="#12131a" d="M1058 118c1.343 3.674.647 5.889-.687 9.5l-1.012 2.844c-1.391 2.841-2.954 4.562-5.301 6.656-1-2-1-2-.328-4.172 5.391-12.891 5.391-12.891 7.328-14.828"/>
        <path fill="#151621" d="m37 51 2 1-4 16-3-2c.592-4.831 1.431-9.384 3-14z"/>
        <path fill="#111219" d="m557 177 1 2 8.063 1.125 2.299.262L574 181v3c-12.67-.964-12.67-.964-18-2z"/>
        <path fill="#191a23" d="m988 82 1 2h2l-4 16h-3c.688-6.192 2.28-12.02 4-18"/>
        <path fill="#08080f" d="m1321 65-1 2c-4.609 1.373-9.536 1.333-14.312 1.563l-2.533.131L1297 69v-3l7.5-.5 2.109-.145c4.808-.312 9.573-.399 14.391-.355"/>
        <path fill="#3f4042" d="m116 119 1 3-3 6H86v-1l27-1 1-6z"/>
        <path fill="#13141b" d="M372 58h1c-.54 6.69-1.887 12.635-4 19h-2c1.207-15.207 1.207-15.207 5-19"/>
        <path fill="#06070a" d="M772 182v2c-7.411 1.426-14.449 2.301-22 2v-2l7.625-1 2.16-.289c4.103-.527 8.067-.816 12.215-.711"/>
        <path fill="#1c1c27" d="M264 169h1l-1 11 7 2v1l-4.437.063-2.496.035C262 183 262 183 261 182c-.412-5.253.343-8.461 3-13"/>
        <path fill="#070711" d="M1281 120h7l-1 2-1.922.277c-2.354.549-2.354.549-3.344 3.227l-.984 3.059-1.016 3.066L1279 134h-2c.539-5.277 1.773-9.256 4-14"/>
        <path fill="#121215" d="m1088 163 1 3c-4.312 4.666-8.329 8.107-14 11 1.401-4.751 3.767-6.807 7.625-9.812l3.039-2.395z"/>
        <path fill="#15151d" d="m693 48 1 2h2l-.875 5.25-.492 2.953c-.581 2.57-1.341 4.518-2.633 6.797l-2-2c.207-2.461.207-2.461.813-5.375l.582-2.898z"/>
        <path fill="#080810" d="M1367 31c1.685 4.077.169 6.831-1.437 10.75l-1.434 3.547L1363 48h-3c3.863-13.863 3.863-13.863 7-17"/>
        <path fill="#05060d" d="M865 165h2c-.55 6.048-1.904 11.306-4 17l-3-1z"/>
        <path fill="#0c0d16" d="M1080 34h1c.402 6.166-1.032 11.177-3 17h-2c1.226-14.226 1.226-14.226 4-17"/>
        <path fill="#1b1c22" d="m1008.688 181.875 2.127.316L1016 183v3c-6.251-.43-12.042-1.014-18-3 3.852-2.568 6.364-1.827 10.688-1.125"/>
        <path fill="#0b0b13" d="M347 159h1c-.452 5.915-1.158 11.352-3 17h-2c.368-6.303 1.166-11.333 4-17"/>
        <path fill="#13141b" d="M1341 94h1c-.596 4.869-1.57 9.328-3 14h-3c.956-5.162 1.803-9.692 5-14"/>
        <path fill="#060710" d="M968 85c1.192 3.463.807 5.653-.25 9.125l-.766 2.633C966 99 966 99 963 101c2.456-13.456 2.456-13.456 5-16"/>
        <path fill="#101018" d="M471 135c1.791 2.686 2.661 4.663 3.625 7.688l.789 2.449L476 147l-3 2-.84-2.336-1.098-3.039-1.09-3.023c-.896-2.537-.896-2.537-1.973-4.602z"/>
        <path fill="#0b0c11" d="M993 69h1c-.779 10.558-.779 10.558-3 15h-2c.365-5.664 1.055-10.007 4-15"/>
        <path fill="#171829" d="M498 55c10.558-.369 10.558-.369 15 2l-1 3-5.312-.812-2.988-.457c-2.826-.765-3.895-1.483-5.699-3.73z"/>
        <path fill="#1f202b" d="m280 93 1 2 2 1-2 10-3-1c1-8.571 1-8.571 2-12"/>
        <path fill="#1a1b21" d="M576 71c2.447 1.87 2.969 2.825 3.512 5.918l.176 3.27.199 3.293L580 86l-3 1c-1.129-5.361-1.097-10.553-1-16"/>
        <path fill="#08080e" d="M1216 151c1.192 3.576.748 4.292-.75 7.625l-1.047 2.414C1213 163 1213 163 1210 164c2.891-9.595 2.891-9.595 6-13"/>
        <path fill="#15151f" d="m7 167 2 1-2 10-3-2 1-8z"/>
        <path fill="#0b0b15" d="M272 134h1l-.437 4.875-.246 2.742C272 144 272 144 271 146h-2l.375-4.312.211-2.426C270 137 270 137 272 134"/>
        <path fill="#121219" d="M989 176c4.234 1.311 8.074 2.944 12 5v1c-5.712-.387-8.737-.87-13-5z"/>
        <path fill="#12121a" d="m455 165 2 1-4 10-3-1 1.375-4.437.773-2.496C453 166 453 166 455 165"/>
        <path fill="#0e0f19" d="M979 124h1l-1 13-3-1c.857-8.571.857-8.571 3-12"/>
        <path fill="#161834" d="M250 165h1l.184 2.484.254 3.266.246 3.234c.257 2.452.635 4.655 1.316 7.016-1.875.625-1.875.625-4 1l-2-2h3z"/>
        <path fill="#08080f" d="M269 147h1l-.437 4.875-.246 2.742C269 157 269 157 268 159h-2l.375-4.312.211-2.426C267 150 267 150 269 147"/>
        <path fill="#080912" d="M976 58c1.399 3.179.893 4.301-.312 7.688C974 69 974 69 972 70c.468-4.776 1.243-8.045 4-12"/>
        <path fill="#16171e" d="M902 38h1c-.553 4.03-1.156 8.02-2 12l-3-1c.508-4.371 1.452-7.39 4-11"/>
        <path fill="#34353a" d="m342 174 1 2h2v2c2.36 2.36 3.779 2.491 7 3v1l-4.437.063-2.496.035C343 182 343 182 342 181z"/>
        <path fill="#07080c" d="M294 43h1l-.437 4.313-.246 2.426C294 52 294 52 293 55h-2c.857-8.571.857-8.571 3-12"/>
        <path fill="#07080e" d="M1326 152c1 3 1 3-.25 6.625C1324 162 1324 162 1321 163l1.375-4.375.773-2.461C1324 154 1324 154 1326 152"/>
        <path fill="#020207" d="M518 66h1c.286 8.571.286 8.571-2 12l-2-1 .938-4.937.527-2.777C517 67 517 67 518 66"/>
        <path fill="#08080c" d="M691 62h1v5c-1 1-1 1-3.066 1.098l-2.496-.035-2.504-.027L682 68c2-2 2-2 4.625-2.125L689 66z"/>
        <path fill="#1e1f29" d="m295 34 1 2 2 1-2 9-3-2z"/>
        <path fill="#1a1a25" d="M1007 25c1.417 4.251.193 6.719-1 11l-3-2 .875-3.937.492-2.215C1005 26 1005 26 1007 25"/>
        <path fill="#1d1e35" d="m557 177 1 2c2.126.467 2.126.467 4.563.625l2.504.227L567 180l-2 3-9-1z"/>
        <path fill="#0c0d15" d="M827 56c1.467 3.815.433 6.29-1 10l-3-1 .875-3.937.492-2.215C825 57 825 57 827 56"/>
        <path fill="#07070d" d="M451 174c.931 2.606 1.149 3.642.063 6.25L450 182l-5-1 3-1c1.155-2.471 1.155-2.471 2-5z"/>
        <path fill="#020309" d="M738 118c1.376 3.821.813 7.082 0 11l-2 1-.125-4.875-.07-2.742C736 120 736 120 738 118"/>
        <path fill="#080911" d="M782 73c-6.286 4.429-6.286 4.429-10 5v-3c6.625-3.125 6.625-3.125 10-2"/>
        <path fill="#15161a" d="M1206 173c1 3 1 3-.312 5.688L1204 181h-2c.498-3.688 1.101-5.605 4-8"/>
        <path fill="#0c0c11" d="m169 157 3 1-4 7h-2c.628-2.929 1.586-5.361 3-8"/>
        <path fill="#0d0e13" d="M1246 89v6l-2 2h-2l1-7c2-1 2-1 3-1"/>
        <path fill="#0c0d13" d="M34 65v6l-2 2h-2l1-7c2-1 2-1 3-1"/>
        <path fill="#1e1f2b" d="m272 127 1 2h2l-1 7-3-1z"/>
        <path fill="#0b0c0f" d="m1252 67-1 8h-3l1-7c2-1 2-1 3-1"/>
        <path fill="#191a26" d="M995 63h1l-1 9-3-2c1.875-5.875 1.875-5.875 3-7"/>
        <path fill="#05050a" d="M345 167h1l-1 9h-2c.875-7.875.875-7.875 2-9"/>
        <path fill="#0d0d14" d="M266 160h1c.125 5.75.125 5.75-1 8h-2v-6z"/>
        <path fill="#0b0b13" d="M1066 89h1v7l-3 1c.875-6.875.875-6.875 2-8"/>
        <path fill="#05060b" d="m640 73 1 3-4 4h-2c1.293-2.884 2.659-4.872 5-7"/>
        <path fill="#1f1f29" d="m691 56 1 2h2l-1 7-3-2z"/>
        <path fill="#0f1017" d="M997 56h1v6l-2 2h-2c1.875-6.875 1.875-6.875 3-8"/>
        <path fill="#0d0d13" d="M1082 25h1c.125 5.75.125 5.75-1 8h-2v-6z"/>
        <path fill="#16171e" d="M154 19c1.255 3.766.371 5.372-1 9l-3-1c.498-3.688 1.101-5.605 4-8"/>
        <path fill="#15161d" d="M862 176h3l-2 6-3-1z"/>
        <path fill="#191922" d="m165 164 3 2-3 6c-1.125-1.75-1.125-1.75-2-4 .875-2.25.875-2.25 2-4"/>
        <path fill="#0d0d12" d="M351 141h1l-1 8h-2v-6z"/>
        <path fill="#05060c" d="M118 112c.934 3.01 1.044 3.867 0 7l-3 1c.75-5.75.75-5.75 3-8"/>
        <path fill="#11111b" d="M284 88v6l-3 1v-6c2-1 2-1 3-1"/>
        <path fill="#20212b" d="m485 65 1 2h2l-1 6-3-1z"/>
        <path fill="#09090a" d="M5 175h1v7H3c.875-5.875.875-5.875 2-7"/>
        <use fill="#05050a" href="#B"/>
        <use fill="#05050b" y="-19" x="85" href="#B"/>
        <path fill="#1a1a22" d="M620 128h1v8l-3-1v-5h2z"/>
        <use fill="#05050a" y="-48" x="11" href="#B"/>
        <path fill="#131318" d="M740 112c1.097 3.29.8 4.713 0 8l-3-1 1-6z"/>
        <use fill="#05050a" y="-65" x="15" href="#B"/>
        <path fill="#16171f" d="m197 88 2 1c-.75 4.75-.75 4.75-3 7-.931-2.606-1.149-3.642-.062-6.25z"/>
        <path fill="#101018" d="m287 76-1 7h-2v-6c2-1 2-1 3-1"/>
        <path fill="#1d1d21" d="M566 73h2l-1 7-3-1c.875-4.875.875-4.875 2-6"/>
        <use fill="#08080a" y="-100" x="105" href="#B"/>
        <path fill="#0d0d17" d="M984 32c.625 1.813.625 1.813 1 4l-2 3h-2l1-6z"/>
    </g>
</svg>
