<?xml version="1.0" encoding="UTF-8"?>
<svg data-bbox="24.201 8.55 508.534 379.757" height="397" width="628" xmlns="http://www.w3.org/2000/svg" data-type="ugc">
    <g>
        <path fill="#4C555A" d="M413 117c6.647-.415 12.58 1.134 19 2.75l3.356.827q4.826 1.197 9.644 2.423l2.545.645c11.385 2.903 11.385 2.903 14.783 4.34 2.315.88 4.38 1.406 6.793 1.898 5.5 1.168 10.676 3.045 15.942 4.992l2.853 1.027c5.576 2.041 10.812 4.369 16.084 7.098l3.438 1.375c7.341 3.349 15.294 7.986 18.937 15.438 1.016 5.18.759 9.312-2 13.875-8.687 8.458-18.922 12.02-30.375 15.312q-4.545 1.312-9.09 2.63-3.164.915-6.332 1.82c-4.397 1.268-8.741 2.558-13.015 4.198-2.8 1.063-5.327 1.858-8.25 2.415-2.428.5-4.504 1.013-6.813 1.937-2.808 1.123-5.629 1.743-8.582 2.371-9.105 1.963-18.197 4.003-27.09 6.785-13.483 4.023-27.24 7.32-40.926 10.582-7.778 1.874-15.362 4.225-22.98 6.657-2.797.88-5.61 1.706-8.422 2.542C315.047 239 315.047 239 294 257c-.738 5.374.344 8.534 3.297 12.871 5.565 6.984 5.565 6.984 12.703 12.129v2l1.938.375L314 285l1 2a146 146 0 0 0 5 3q3.066 1.995 6.125 4c17.243 11.161 35.245 20.45 53.867 29.069 3.612 1.675 7.217 3.364 10.82 5.056l2.183 1.024c3.887 1.83 7.74 3.71 11.567 5.663 3.337 1.691 6.663 3.061 10.184 4.313 2.94 1.142 5.772 2.476 8.629 3.813 4.621 2.16 9.252 4.182 14.016 6.007a197 197 0 0 1 6.863 2.953c4.435 1.983 8.917 3.815 13.433 5.602l2.512 1.001a4973 4973 0 0 0 14.437 5.726q4.002 1.583 8 3.172 1.965.779 3.929 1.552c20.42 8.034 20.42 8.034 24.435 12.049.188 3.063.188 3.063 0 6-1.907 1.907-5.393 1.163-7.988 1.168l-2.189.012q-3.567.013-7.135.007l-2.45.002c-16.091-.01-32.008-.974-48.033-2.446q-8.519-.78-17.046-1.44A3236 3236 0 0 1 410 383l-2.89-.238c-26.09-2.208-26.09-2.208-35.11-7.762h-2l-1.687 1.985c-3.197 2.785-5.137 2.425-9.325 2.257l-2.08-.07a335 335 0 0 1-4.375-.188 412 412 0 0 0-6.504-.257c-7.861-.296-15.612-.97-23.415-1.958-8.192-1.014-16.414-1.5-24.648-2.029-44.036-2.88-44.036-2.88-58.572-11.353-2.9-1.68-5.831-3.298-8.765-4.918-15.994-8.856-15.994-8.856-23.629-13.469l-2.945-1.762c-7.294-4.417-14.21-9.142-21.055-14.238l-5.687-4.062c-8.166-5.954-15.24-12.74-22.313-19.938l-1.574-1.453c-1.844-2-3.067-4.194-4.426-6.547l-1.5-2.254c-5.132-7.898-8.673-17.194-7.5-26.746 2.43-9.786 5.196-18.222 13-25h2l.727-1.793C161.103 231.889 177.44 225.361 187 221c3.562-.886 6.907-1.133 10.57-1.176l3.22-.072q3.3-.064 6.6-.094c8.614-.223 17.38-1.21 23.61-7.658h2l.313-1.75c.818-2.679 1.819-4.16 3.687-6.25 2.237-1.005 2.237-1.005 4.816-1.703l2.815-.781 2.932-.766 2.943-.812C257.618 198 257.618 198 260 198l.445 1.941c1.615 6.226 3.567 10.856 8.555 15.059 7.38 4.1 15.379 4.149 23.616 4.161l2.486.015q4.032.021 8.062.027l2.797.009q7.314.022 14.629.028c5.028.006 10.056.03 15.084.058 3.877.019 7.755.024 11.633.026q2.781.004 5.561.024c2.592.017 5.183.015 7.775.008l2.305.028c4.784-.037 7.94-.977 12.052-3.384l2.563-1.062c7.096-5.641 10.125-17.832 12.875-26.25l.757-2.188c.616-1.914 1.135-3.859 1.61-5.812 1.052-3.654 2.091-6.514 4.195-9.688 3.854-2.115 7.68-2.92 11.997-3.645 3.439-.61 6.807-1.496 10.19-2.355l2.036-.5c7.443-1.85 15.527-3.87 21.777-8.5v-4c-9.378-8.429-24.583-11.964-36.375-15.75l-2.772-.89c-5.02-1.576-9.982-2.895-15.16-3.841L387 131l-1-2h2v-2l3.543.395 4.644.418 2.33.271c4.312.352 5.878.386 9.42-2.365 2.116-2.79 3.65-5.52 5.063-8.719"/>
        <path fill="#F5F7F8" d="m322.332 93.87 3.038-.005q4.937-.006 9.873.002l6.879-.003q7.19-.003 14.378.005c6.154.006 12.308.002 18.462-.004q7.093-.004 14.185 0 3.406.001 6.811-.002 4.744-.002 9.487.007l2.859-.006 2.6.008 2.264.002c1.832.125 1.832.125 3.832 1.125-.762 3.257-1.756 6.398-2.812 9.57l-1.07 3.216-1.118 3.34-1.117 3.363-1.07 3.207-.98 2.938c-.833 2.366-.833 2.366-1.833 4.366-3.642 1.41-7.521 1.12-11.367 1.082l-2.228-.01q-2.39-.01-4.78-.027-3.783-.025-7.565-.036-10.754-.037-21.507-.105-6.581-.038-13.163-.054-2.507-.01-5.014-.03c-2.336-.02-4.672-.027-7.008-.03l-2.091-.027c-3.581.007-6.302.142-9.277 2.237-2.433 3.967-3.319 7.443-4 12l2.383-.02q11.145-.09 22.288-.135 5.73-.022 11.458-.07c3.689-.034 7.378-.051 11.068-.06q2.105-.008 4.21-.032c8.977-.1 14.818.24 22.406 5.13 3.806 3.806 4.304 7.736 4.5 12.937-.203 8.48-3.473 15.817-6.797 23.496-1.259 3.016-2.342 6.075-3.406 9.165l-1.023 2.938a449 449 0 0 0-1.968 5.822c-2.233 6.42-4.858 12.604-11.156 15.894-4.044 1.277-7.8 1.247-12.016 1.258l-2.737.03c-2.981.029-5.962.043-8.944.054l-6.236.034q-6.537.03-13.073.04c-5.57.01-11.139.059-16.708.116-4.295.037-8.59.047-12.884.05q-3.08.01-6.157.049c-19.365.23-19.365.23-25.693-5.016-3.922-4.35-5.508-7.721-5.515-13.68 1.478-8.561 4.508-16.64 7.375-24.812q1.094-3.137 2.184-6.275l1.424-4.091a891 891 0 0 0 8.209-24.689c.808-2.133.808-2.133 2.285-5.02 1.472-3.008 2.429-5.832 3.336-9.05 1.533-5.098 3.215-10.096 5.125-15.063l1.402-3.687c2.351-4.691 5.333-7.428 9.66-10.313 6.117-1.065 12.136-1.142 18.332-1.129M307 170c-.72 1.61-.72 1.61-1.457 3.253-.27.604-.54 1.208-.82 1.83-1.096 2.906-1.409 5.843-1.723 8.916 3.05 2.033 3.67 2.253 7.101 2.275l2.489.029 2.68-.003 2.769.013q2.9.008 5.803.002c2.95-.003 5.898.02 8.848.046q2.821.003 5.642.002l2.662.028c5.085-.039 8.6-.566 13.006-3.392 1.558-1.83 1.558-1.83 2.438-3.937l.996-2.027c.676-2.428.496-3.71-.434-6.036-2.417-1.208-3.933-1.12-6.633-1.113h-2.911l-3.15.016-3.22.004q-5.106.01-10.21.03l-6.91.015q-8.483.016-16.966.048"/>
        <path fill="#4E575C" d="M413 117c6.647-.415 12.58 1.134 19 2.75l3.356.827q4.826 1.197 9.644 2.423l2.545.645c11.385 2.903 11.385 2.903 14.783 4.34 2.315.88 4.38 1.406 6.793 1.898 5.5 1.168 10.676 3.045 15.942 4.992l2.853 1.027c5.576 2.041 10.812 4.369 16.084 7.098l3.438 1.375c7.341 3.349 15.294 7.986 18.937 15.438 1.016 5.18.759 9.312-2 13.875-8.687 8.458-18.922 12.02-30.375 15.312q-4.545 1.312-9.09 2.63-3.164.915-6.332 1.82c-4.397 1.268-8.741 2.558-13.015 4.198-2.8 1.063-5.327 1.858-8.25 2.415-2.428.5-4.504 1.013-6.813 1.937-2.808 1.123-5.629 1.743-8.582 2.371-9.105 1.963-18.197 4.003-27.09 6.785-13.483 4.023-27.24 7.32-40.926 10.582-7.778 1.874-15.362 4.225-22.98 6.657-2.797.88-5.61 1.706-8.422 2.542C315.047 239 315.047 239 294 257c-.738 5.374.344 8.534 3.297 12.871 5.565 6.984 5.565 6.984 12.703 12.129v2l1.938.375L314 285l1 2a146 146 0 0 0 5 3q3.066 1.995 6.125 4c17.243 11.161 35.245 20.45 53.867 29.069 3.612 1.675 7.217 3.364 10.82 5.056l2.183 1.024c3.887 1.83 7.74 3.71 11.567 5.663 3.337 1.691 6.663 3.061 10.184 4.313 2.94 1.142 5.772 2.476 8.629 3.813 4.621 2.16 9.252 4.182 14.016 6.007a197 197 0 0 1 6.863 2.953c4.435 1.983 8.917 3.815 13.433 5.602l2.512 1.001a4973 4973 0 0 0 14.437 5.726q4.002 1.583 8 3.172 1.965.779 3.929 1.552c20.42 8.034 20.42 8.034 24.435 12.049.188 3.063.188 3.063 0 6-1.907 1.907-5.393 1.163-7.988 1.168l-2.189.012q-3.567.013-7.135.007l-2.45.002c-16.091-.01-32.008-.974-48.033-2.446q-8.519-.78-17.046-1.44A3236 3236 0 0 1 410 383l-2.89-.238c-26.09-2.208-26.09-2.208-35.11-7.762h-2l-1.687 1.985c-3.197 2.785-5.137 2.425-9.325 2.257l-2.08-.07a335 335 0 0 1-4.375-.188 412 412 0 0 0-6.504-.257c-7.861-.296-15.612-.97-23.415-1.958-8.192-1.014-16.414-1.5-24.648-2.029-44.036-2.88-44.036-2.88-58.572-11.353-2.9-1.68-5.831-3.298-8.765-4.918-15.994-8.856-15.994-8.856-23.629-13.469l-2.945-1.762c-7.294-4.417-14.21-9.142-21.055-14.238l-5.687-4.062c-8.166-5.954-15.24-12.74-22.313-19.938l-1.574-1.453c-1.844-2-3.067-4.194-4.426-6.547l-1.5-2.254c-5.132-7.898-8.673-17.194-7.5-26.746 2.43-9.786 5.196-18.222 13-25h2l.727-1.793c5.33-9.24 23.71-17.938 33.773-20.957 3.516-.352 6.967-.31 10.5-.25l1 2-3.332 1.32C184.654 228.535 173.153 234.387 162 243l-2.035 1.527c-6.527 5.179-11.328 11.777-12.715 20.098-1.374 13.05 1.52 22.263 9.555 32.684 6.729 8.25 13.727 15.219 22.195 21.691l1.696 1.3c12.735 9.716 26.202 18.05 40.148 25.903a249 249 0 0 1 8.031 4.797c4.284 2.58 8.672 4.915 13.125 7.188l1.94 1.01c8.442 4.236 16.802 6.192 26.185 6.865l2.82.23q2.973.24 5.947.469c4.309.33 8.617.683 12.924 1.039q3.12.256 6.24.502l2.882.232 2.527.2c1.797.188 3.587.45 5.367.76 3.633.58 7.25.835 10.918 1.04l2.228.13q2.33.135 4.66.265c2.328.13 4.655.269 6.983.408 9.14.529 18.22.786 27.379.662l-1.97-1.272c-4.042-2.62-7.813-5.091-11.03-8.728 8.465-.302 14.353.868 21.563 5.375 12.93 7.736 26.965 8.363 41.628 9.407 3.265.253 6.514.6 9.768.964 10.837 1.203 21.701 1.794 32.585 2.377 10.598.568 21.167 1.257 31.734 2.268 6.257.576 12.44.704 18.722.609a454 454 0 0 0-14.25-5.875c-4.455-1.763-8.848-3.59-13.187-5.625-4.282-1.986-8.635-3.688-13.063-5.312-12.143-4.464-24.053-9.532-35.792-14.965-2.728-1.232-5.476-2.388-8.243-3.528-6.355-2.637-12.666-5.366-18.965-8.132l-3.145-1.37a373 373 0 0 1-18.635-8.829c-2.873-1.44-5.775-2.795-8.7-4.125-21.273-9.7-43.122-21.073-61.02-36.239l-2.54-1.918c-7.184-5.438-17.169-13.918-18.858-23.293.065-6.024.775-10.927 5.027-15.566 7.684-7.095 16.353-11.454 26.11-15.012 3-1.114 5.898-2.353 8.824-3.649 6.441-2.743 13.111-4.633 19.847-6.507l2.54-.723 2.291-.634c1.964-.553 1.964-.553 2.759-2.698l2.852.105 3.773.083 3.727.105c3.945-.317 6.248-1.335 9.648-3.293l2.563-1.062c7.096-5.641 10.125-17.832 12.875-26.25l.757-2.188c.616-1.914 1.135-3.859 1.61-5.812 1.052-3.654 2.091-6.514 4.195-9.688 3.854-2.115 7.68-2.92 11.997-3.645 3.439-.61 6.807-1.496 10.19-2.355l2.036-.5c7.443-1.85 15.527-3.87 21.777-8.5v-4c-9.378-8.429-24.583-11.964-36.375-15.75l-2.772-.89c-5.02-1.576-9.982-2.895-15.16-3.841L387 131l-1-2h2v-2l3.543.395 4.644.418 2.33.271c4.312.352 5.878.386 9.42-2.365 2.116-2.79 3.65-5.52 5.063-8.719"/>
        <path fill="#F5F7F9" d="M248 93v1l3.375.938C255 96 255 96 257 97v2h3c6.18 14.163 1.131 27.166-4 41a2875 2875 0 0 0-2.113 5.84l-1.084 3.002c-3.258 9.041-6.502 18.087-9.678 27.158l-.83 2.367a753 753 0 0 0-3.838 11.274 334 334 0 0 1-3.894 11.109l-1.184 3.234c-2.59 5.666-5.565 8.521-11.072 11.175-4.028 1.468-7.945 1.389-12.192 1.343l-2.896.016c-3.137.013-6.273-.004-9.41-.022q-3.288 0-6.575.005-6.875 0-13.75-.034c-5.867-.029-11.733-.026-17.6-.013-4.522.007-9.043-.001-13.565-.014q-3.244-.006-6.489 0c-3.025.002-6.05-.014-9.074-.036l-2.691.014c-6.498-.078-11.387-1.092-16.44-5.48-4.108-4.899-3.077-11.803-2.804-17.902.44-4.996 2.305-9.433 4.179-14.036.77-2.027 1.525-4.06 2.28-6.092q.755-2.023 1.525-4.039a225 225 0 0 0 3.543-9.908c2.225-6.757 4.642-13.447 7.027-20.149l1.422-4.001a6374 6374 0 0 1 8.112-22.718 167 167 0 0 0 2.089-6.324c1.875-5.18 6.127-8.448 11.002-10.769 5.23-.946 10.316-1.166 15.61-1.205l2.52-.03q4.095-.047 8.19-.081l5.719-.063q7.507-.082 15.017-.153 7.638-.077 15.276-.161 11.159-.12 22.317-.231l2.349-.024c3.667-.035 7.334-.06 11.002-.052m-82 36c-1.412 2.111-1.412 2.111-2.16 4.492l-.958 2.615-.945 2.768-1.026 2.854a657 657 0 0 0-2.003 5.668 379 379 0 0 1-2.388 6.642C150.935 168.2 150.935 168.2 148 183c1.58 2.194 2.505 2.914 5.187 3.381l2.572.007 2.923.029 3.154-.019 3.247.01q3.402.002 6.804-.017c3.468-.016 6.934 0 10.402.02q3.304-.004 6.61-.013l3.14.019c6.995-.01 6.995-.01 12.961-3.417 1.433-2.228 1.433-2.228 2.375-4.937l1.242-3.227q.696-1.916 1.383-3.836l.821-2.276c2.115-5.89 4.161-11.801 6.179-17.724l.768-2.254c1.44-4.24 2.868-8.481 4.232-12.746l1.324-3.668c1.025-3.235 1.025-3.235-.485-5.508-2.321-2.302-3.355-2.33-6.582-2.342l-2.914-.038-3.144.025-3.24-.012q-3.395-.004-6.79.022c-3.458.02-6.913 0-10.37-.026q-3.3.004-6.6.016l-3.125-.025c-5.811.076-9.608.434-14.074 4.556"/>
        <path fill="#DEE2EC" d="M413 117c6.647-.415 12.58 1.134 19 2.75l3.356.827q4.826 1.197 9.644 2.423l2.545.645c11.385 2.903 11.385 2.903 14.783 4.34 2.315.88 4.38 1.406 6.793 1.898 5.5 1.168 10.676 3.045 15.942 4.992l2.853 1.027c5.576 2.041 10.812 4.369 16.084 7.098l3.438 1.375c7.341 3.349 15.294 7.986 18.937 15.438 1.016 5.18.759 9.312-2 13.875-8.687 8.458-18.922 12.02-30.375 15.312q-4.545 1.312-9.09 2.63-3.164.915-6.332 1.82c-4.397 1.268-8.741 2.558-13.015 4.198-2.8 1.063-5.327 1.858-8.25 2.415-2.428.5-4.504 1.013-6.813 1.937-2.808 1.123-5.629 1.743-8.582 2.371-9.105 1.963-18.197 4.003-27.09 6.785-13.483 4.023-27.24 7.32-40.926 10.582-7.778 1.874-15.362 4.225-22.98 6.657-2.797.88-5.61 1.706-8.422 2.542C315.047 239 315.047 239 294 257c-.738 5.374.344 8.534 3.297 12.871 5.565 6.984 5.565 6.984 12.703 12.129v2l1.938.375L314 285l1 2a146 146 0 0 0 5 3q3.066 1.995 6.125 4c17.243 11.161 35.245 20.45 53.867 29.069 3.612 1.675 7.217 3.364 10.82 5.056l2.183 1.024c3.887 1.83 7.74 3.71 11.567 5.663 3.337 1.691 6.663 3.061 10.184 4.313 2.94 1.142 5.772 2.476 8.629 3.813 4.621 2.16 9.252 4.182 14.016 6.007a197 197 0 0 1 6.863 2.953c4.435 1.983 8.917 3.815 13.433 5.602l2.512 1.001a4973 4973 0 0 0 14.437 5.726q4.002 1.583 8 3.172 1.965.779 3.929 1.552c20.42 8.034 20.42 8.034 24.435 12.049.188 3.063.188 3.063 0 6-1.907 1.907-5.393 1.163-7.988 1.168l-2.189.012q-3.567.013-7.135.007l-2.45.002c-16.091-.01-32.008-.974-48.033-2.446q-8.519-.78-17.046-1.44A3236 3236 0 0 1 410 383l-2.89-.238c-26.09-2.208-26.09-2.208-35.11-7.762h-2l-1.687 1.985c-3.197 2.785-5.137 2.425-9.325 2.257l-2.08-.07a335 335 0 0 1-4.375-.188 412 412 0 0 0-6.504-.257c-7.861-.296-15.612-.97-23.415-1.958-8.192-1.014-16.414-1.5-24.648-2.029-44.036-2.88-44.036-2.88-58.572-11.353-2.9-1.68-5.831-3.298-8.765-4.918-15.994-8.856-15.994-8.856-23.629-13.469l-2.945-1.762c-7.294-4.417-14.21-9.142-21.055-14.238l-5.687-4.062c-8.166-5.954-15.24-12.74-22.313-19.938l-1.574-1.453c-1.844-2-3.067-4.194-4.426-6.547l-1.5-2.254c-5.132-7.898-8.673-17.194-7.5-26.746 2.43-9.786 5.196-18.222 13-25h2l.727-1.793c5.33-9.24 23.71-17.938 33.773-20.957 3.516-.352 6.967-.31 10.5-.25l1 2-3.332 1.32C184.654 228.535 173.153 234.387 162 243l-2.035 1.527c-6.527 5.179-11.328 11.777-12.715 20.098-1.374 13.05 1.52 22.263 9.555 32.684 6.729 8.25 13.727 15.219 22.195 21.691l1.696 1.3c12.735 9.716 26.202 18.05 40.148 25.903a249 249 0 0 1 8.031 4.797c4.284 2.58 8.672 4.915 13.125 7.188l1.94 1.01c8.442 4.236 16.802 6.192 26.185 6.865l2.82.23q2.973.24 5.947.469c4.309.33 8.617.683 12.924 1.039q3.12.256 6.24.502l2.882.232 2.527.2c1.797.188 3.587.45 5.367.76 3.633.58 7.25.835 10.918 1.04l2.228.13q2.33.135 4.66.265c2.328.13 4.655.269 6.983.408 9.14.529 18.22.786 27.379.662l-1.97-1.272c-4.042-2.62-7.813-5.091-11.03-8.728 8.465-.302 14.353.868 21.563 5.375 12.93 7.736 26.965 8.363 41.628 9.407 3.265.253 6.514.6 9.768.964 10.837 1.203 21.701 1.794 32.585 2.377 10.598.568 21.167 1.257 31.734 2.268 6.257.576 12.44.704 18.722.609a454 454 0 0 0-14.25-5.875c-4.455-1.763-8.848-3.59-13.187-5.625-4.282-1.986-8.635-3.688-13.063-5.312-12.143-4.464-24.053-9.532-35.792-14.965-2.728-1.232-5.476-2.388-8.243-3.528-6.355-2.637-12.666-5.366-18.965-8.132l-3.145-1.37a373 373 0 0 1-18.635-8.829c-2.873-1.44-5.775-2.795-8.7-4.125-21.273-9.7-43.122-21.073-61.02-36.239l-2.54-1.918c-7.184-5.438-17.169-13.918-18.858-23.293.065-6.024.775-10.927 5.027-15.566 7.684-7.095 16.353-11.454 26.11-15.012 3-1.114 5.898-2.353 8.824-3.649 6.441-2.743 13.111-4.633 19.847-6.507l2.54-.723 2.291-.634c1.964-.553 1.964-.553 2.759-2.698l2.852.105 3.773.083 3.727.105c5.73-.46 9.836-3.352 14.648-6.293 2.518-1.26 4.945-1.371 7.713-1.692 3.874-.522 7.664-1.386 11.474-2.245l2.366-.514 2.302-.514 2.052-.457c2.158-.549 2.158-.549 4.384-1.533 3.332-1.286 6.723-2.04 10.201-2.807 10.304-2.352 20.462-5.186 30.633-8.05l2.86-.803c32.844-8.011 32.844-8.011 63.015-22.385h2c2.102-3.416 2.487-6.022 2-10-6.939-10.104-20.204-15.228-31.5-18.86-4.17-1.358-8.303-2.804-12.437-4.265l-2.188-.769c-2.836-1.002-5.645-2.01-8.422-3.168-3.19-1.22-6.452-2.016-9.765-2.813l-4.31-1.055-2.21-.538a700 700 0 0 1-6.14-1.54 649 649 0 0 0-24.266-5.685c-5.554-1.203-5.554-1.203-7.762-2.307z"/>
        <path fill="#F1F3F7" d="m102.73 9.867 2.682-.004 2.775.012 2.81-.012 2.67.004 2.447.003C118 10 118 10 119 11c.093 1.841.117 3.686.113 5.53v3.579l-.016 3.895-.004 3.964q-.007 5.225-.025 10.45-.014 5.33-.02 10.658Q119.032 59.539 119 70c1.763-1.764 1.768-4.363 2.25-6.75 2.792-13.352 6.016-26.608 9.437-39.813l.613-2.397c2.014-7.664 2.014-7.664 3.7-10.04 6.756-1.423 14.304-1.9 21 0-.634 4.368-1.662 8.421-3 12.625-1.634 5.15-1.634 5.15-3 10.375l8-1 .503-1.804a1239 1239 0 0 1 2.309-8.071l.791-2.84.791-2.715.714-2.507C164 13 164 13 167 11c1.9-.227 1.9-.227 4.011-.195l2.295.019 2.381.05 2.416.028c1.966.024 3.931.06 5.897.098 1.072 3.217.936 4.24.187 7.437l-.52 2.309C183 23 183 23 182.012 24.949c-1.203 2.439-1.77 4.778-2.386 7.426a295 295 0 0 1-3.5 13.187c-1.956 6.735-3.734 13.51-5.463 20.305-1.555 6.025-1.555 6.025-2.662 7.133-1.343.086-2.69.107-4.036.097l-2.45-.01-2.577-.025-2.588-.013q-3.174-.019-6.35-.05c-1-2-1-2-.187-4.5L151 65c.738-3.322 1.367-6.654 2-10h-10l-.313 2.813c-.476 3.404-1.31 6.64-2.23 9.95l-.825 2.979L139 73q-6.126.255-12.25.5l-3.454.144c-3.432.137-6.863.25-10.296.356l-3.467.137-3.268.082-2.929.091L101 74c-2.43-3.644-2.162-5.713-2-10H88c-.29.928-.578 1.856-.875 2.812C86 70 86 70 84 73c-2.951.22-5.684.28-8.625.187l-2.43-.04A539 539 0 0 1 67 73c-1.18-3.539-.518-4.552.992-7.809 1.165-2.534 2.207-5.107 3.258-7.691 3.852-9.265 8.097-18.385 12.648-27.328.953-1.88 1.892-3.768 2.828-5.657l.945-1.906q.936-1.887 1.868-3.775c3.767-7.577 3.767-7.577 6.29-8.513 2.33-.345 4.545-.45 6.901-.454M101 35a79 79 0 0 0-2.563 3.875l-1.379 2.18C95.84 42.923 95.84 42.923 96 45h6c1.23-3.694.644-6.206 0-10z"/>
        <path fill="#F3F5F8" d="M230 13c5.586 5.586 5.953 11.338 6 19-.988 7.544-5.386 13.074-11 18-3.5 1.563-3.5 1.563-6 2 1.043 5.802 2.622 10.789 5.293 16.055C225 70 225 70 224 73l-20 1-4-9-3-5-5 13c-2.958.248-5.915.474-8.875.688l-2.55.22-2.442.166-2.254.175L174 74l-2-3a88 88 0 0 1 2.625-8.187c2.042-5.777 3.893-11.477 5.313-17.438q.736-2.986 1.474-5.971.657-2.693 1.293-5.39c.79-3.286 1.632-6.555 2.482-9.827l.737-3.203c1.95-7.263 1.95-7.263 5.145-9.31 2.317-.797 4.513-1.296 6.931-1.674l2.586-.668C210.54 7.963 221.057 7.943 230 13m-24 15c-.909 1.743-.909 1.743-1.625 3.813-.26.687-.52 1.374-.79 2.082-.764 2.383-.764 2.383-.585 6.105 4.13-.567 4.13-.567 8-2v-2h2c1.042-4.615 1.042-4.615 0-9-3.629-.151-3.629-.151-7 1"/>
        <path fill="#F2F4F8" d="M361 11c-.613 7.816-2.478 15.957-6 23h9l.805-3.29 1.07-4.335.527-2.16C367.427 20.08 368.447 15.974 370 12c2.297-1.148 3.583-1.116 6.133-1.098l2.441.01 2.551.025 2.574.014q3.15.02 6.301.049c1.458 4.57-.055 7.998-1.562 12.375a406 406 0 0 0-6.563 21.875l-.753 2.792a3218 3218 0 0 0-3.352 12.614l-.56 2.116q-.728 2.762-1.448 5.525C375 71 375 71 374 73h-18c-1.103-4.413-.649-6.406.438-10.75l.87-3.547L358 56l-9-1-.875 3.938L345 73q-3.874.291-7.75.563l-2.21.17c-3.59.244-6.59.264-10.04-.733q.431-2.75.875-5.5l.492-3.094c.579-3.114 1.292-6.165 2.08-9.232.806-3.169 1.551-6.351 2.303-9.533.866-3.66 1.741-7.316 2.615-10.973q.88-3.707 1.744-7.418l1.016-4.25.883-3.75c.974-3.19 2.001-5.578 3.992-8.25 6.084-1.614 13.968-2.01 20 0"/>
        <path fill="#F0F2F8" d="M424 11h20c1.125 5.627 1.125 5.627.145 9.188l-.632 2.348-.7 2.464-.699 2.552a481 481 0 0 1-5.286 17.73 84 84 0 0 0-1.765 6.906C432.819 60.237 429.48 67.699 422 72c-9.145 3.91-20.755 5.058-30.125 1.375-3.955-2.129-6.104-4.14-7.875-8.375-1.87-13.027 3.329-26.689 7-39l1.04-3.734 1.022-3.578.91-3.239L395 13c2.707-.902 4.238-1.119 7.012-1.098l2.295.01 2.38.025 2.417.014q2.947.02 5.896.049c.36 5.984-.897 10.67-2.812 16.313l-1.657 5.046-.804 2.424c-1.14 3.478-2.165 6.988-3.184 10.502C406 48 406 48 405 50c-.04 2-.043 4 0 6 3.93-.575 3.93-.575 7-3 2.682-6.034 4.442-12.206 5.508-18.71.492-2.29.492-2.29 1.484-4.7 1.486-3.82 1.875-7.709 2.445-11.75C422 15 422 15 424 11"/>
        <path fill="#F2F4F8" d="m520.688 9.938 3.318.014q3.997.017 7.995.049c1.028 3.136.993 4.831-.215 7.89l-.83 2.149-.893 2.21-.88 2.258A674 674 0 0 1 527 30.001c-5.038.832-9.812 1.107-14.937 1.062l-2.072-.014c-1.664-.011-3.327-.03-4.99-.048l-1 5 2.312-.5c4.909-.666 9.742-.58 14.688-.5 1.444 2.31 2.083 3.48 1.644 6.218l-.832 2.282-.793 2.28c-1.125 2.45-2.12 4.293-4.02 6.22-2.199.171-2.199.171-4.687-.25-4.517-.657-8.752-.835-13.312-.75l-1 4 20-1c-1.186 7.115-3.79 12.614-7 19-26.19 1.668-26.19 1.668-36 0-1-2-1-2-.329-4.547l1.078-3.203c1.504-4.685 2.763-9.306 3.75-14.126 1.397-6.787 3.063-13.461 4.95-20.129.59-2.136 1.13-4.281 1.672-6.43q.592-2.19 1.191-4.378l.498-2.085c.553-1.935.553-1.935 2.19-5.103 2.643-1.23 4.188-1.66 7-2l2.457-.325c7.071-.778 14.124-.794 21.23-.737"/>
        <path fill="#F0F2F7" d="M285 11c-.434 7.031-1.743 13.329-4 20l-2.125-.105c-6.342-.181-11.263-.013-16.875 3.105-1.14 3.078-1.14 3.078-1 6l1.715.324c2.653.785 4.549 1.952 6.848 3.489l2.316 1.519c2.21 1.739 3.655 3.271 5.121 5.668.517 4.575.483 6.95-1.437 11.125-6.957 7.804-15.493 11.359-25.876 12.023-2.543.1-5.08.148-7.625.165l-2.476.017c-4.298-.053-7.67-.345-11.586-2.33.368-6.303 1.166-11.333 4-17 .869.095 1.738.19 2.633.29 1.152.11 2.305.22 3.492.335l3.445.352c3.595.024 6.11-.655 9.43-1.977-1.206-3.617-2.136-3.951-5.312-5.875-4.875-3.154-8.004-5.585-9.563-11.375-.204-6.113.637-10.8 3.938-16C249.147 11.244 272.656 4.828 285 11"/>
        <path fill="#F1F2F7" d="M337 12c-1.966 7.37-4.696 14.13-8 21l-2.781-.14c-7.71-.227-12.637.09-19.219 4.14h-2l-.86 1.723a294 294 0 0 1-2.28 4.46c-2.39 4.663-2.39 4.663-2.36 9.755 1.795 2.467 2.535 3.282 5.5 4.062 5.371-.273 9.902-1.492 14.922-3.379C322 53 322 53 326 53c-.633 4.085-1.945 7.413-3.75 11.125l-1.484 3.133c-2.308 3.583-4.693 5.005-8.657 6.414-10.106 1.572-18.836.877-27.359-4.86-5.14-5.255-6.985-9.665-7.25-17.062.473-12.784 5.362-21.673 14.328-30.562 6.082-5.48 12.193-8.695 20.235-10l2.218-.378C321.344 9.73 330.468 8.734 337 12"/>
        <path fill="#EFF1F7" d="M62.088 9.954c6.64-.09 13.273-.069 19.912.046-.562 7.677-2.575 13.063-6 20l-21 2-1 4 18-1c-.544 6.857-1.693 11.08-4 18H49a713 713 0 0 0-3 9.141l-1 3.11-1 3.14c-1 2.61-1 2.61-3 4.61-3.152.519-3.152.519-6.937.812l-3.778.332C27 74 27 74 25.26 72.722 24 71 24 71 24.555 67.317q.635-2.385 1.32-4.754.733-2.7 1.461-5.399c.27-.98.538-1.96.815-2.971.915-3.44 1.752-6.894 2.576-10.357l.89-3.713q.864-3.603 1.707-7.212C37.062 17.579 37.062 17.579 41 12c3.242-1.356 4.552-1.674 7.875-1.688l2.314-.134c3.632-.178 7.264-.17 10.899-.225"/>
        <path fill="#F1F3F8" d="m465.938 9.875 2.361.027c1.9.024 3.801.06 5.702.098-.718 4.459-2.208 8.55-3.813 12.75l-.816 2.16c-1.413 3.71-2.892 7.36-4.559 10.965-1.783 3.863-2.987 7.796-4.152 11.883-.732 2.486-1.63 4.864-2.66 7.242l1.515-.496c3.41-.692 6.772-.609 10.234-.566l2.114.013q2.568.02 5.137.049c-.312 8.264-2.53 10.804-7 19h-36c1.271-8.266 2.537-15.688 4.937-23.562q.81-2.74 1.617-5.481l.769-2.603c.83-2.891 1.55-5.801 2.239-8.729q.706-2.815 1.438-5.625l.493-1.916a252 252 0 0 1 1.756-6.209l1.079-3.82C450 12 450 12 453.114 10.578c4.339-.645 8.448-.8 12.824-.703"/>
        <path fill="#DCDEEB" d="M388 127c12.112.829 22.567 3.852 33.865 8.182 1.751.671 3.512 1.316 5.276 1.955 7.632 2.844 16.15 6.97 21.859 12.863 1.125 2.875 1.125 2.875 1 6-3.343 4.797-6.678 7.353-12.062 9.688l-1.987.895c-4.97 2.167-9.956 3.69-15.267 4.812-2.75.562-2.75.562-5.563 1.64-3.555 1.1-6.785 1.38-10.496 1.59l-3.773.227L398 175v-4c6.997-2.253 13.98-4.284 21.125-6 12.586-2.956 12.586-2.956 23.875-9v-4c-9.378-8.429-24.583-11.964-36.375-15.75l-2.772-.89c-5.02-1.576-9.982-2.895-15.16-3.841L387 131l-1-2h2z"/>
        <path fill="#4F575B" d="M248 90c8.847-.336 17.431.577 26.191 1.654 2.332.286 4.664.562 6.997.836l4.468.537 2.102.25c2.892.359 5.468.798 8.242 1.723l-1 5h-2l-3 10q-4.875-.464-9.75-.937l-2.79-.264-2.694-.264-2.476-.238c-2.188-.284-4.198-.591-6.29-1.297-1.133-2.11-1.133-2.11-2.125-4.75-2.84-6.212-6.793-7.776-12.875-10.25z"/>
        <path fill="#E7ECF1" d="M348 362c8.465-.302 14.353.868 21.563 5.375 12.163 7.329 26.608 8.66 40.437 10.625l-1 3c-26.01.742-26.01.742-37-6h-2l-1.559 2.004c-3.689 3.016-6.917 2.318-11.503 1.933l-2.564-.173c-6.358-.502-12.351-1.612-18.374-3.764v-2l29 1v-2l-2.14-.285c-3.376-.844-5.698-2.26-8.61-4.152l-2.922-1.872C349 364 349 364 348 362"/>
        <path fill="#D9DDE8" d="M406 377c5.512-.087 10.836.236 16.313.875 9.627 1.046 19.27 1.607 28.937 2.125 13.942.749 27.846 1.719 41.75 3v1h-13v2l6 1v1c-8.735.135-17.355-.27-26.062-.937l-3.604-.264c-6.2-.46-12.39-.975-18.58-1.551-6.229-.56-12.466-1.02-18.701-1.498-5.71-.447-11.378-.981-17.053-1.75v-1h7v-2z"/>
        <path fill="#EEF2F3" d="m274.875 218.875 2.367.617L279 220c-2.654 2.654-5.098 3.088-8.687 4.188-14.392 4.597-35.225 11.729-42.625 25.851-1.653 4.712-1.213 9.352.312 14.024l1 1.937h-6c-2.999-5.026-2.569-10.33-2-16 4.369-11.716 17.224-18.8 28-24 4.92-2.21 9.931-4.158 15-6l3.133-1.219c3.091-.842 4.687-.74 7.742.094"/>
        <path fill="#EEF2F3" d="M430 130c15.179.685 35.725 7.013 46.316 18.516 2.37 3.496 2.389 5.327 1.684 9.484-1.72 2.926-3.742 5.472-6 8l-1.344 1.723c-2.428 1.873-4.328 1.57-7.344 1.464l-3.011-.082L458 169a105 105 0 0 1 4-5h2l.875-1.812C466 160 466 160 468 157c.712-5.848.712-5.848-2.125-10.75-10.78-8.437-22.782-12.048-35.875-15.25z"/>
        <path fill="#CDD1E1" d="M282 368c6.405-.26 12.641.124 19 .875 21.122 2.427 42.748 3.677 64 3.125v2c-19.968.185-19.968.185-29-1v2l11 2v1c-8.112.231-15.911-.097-23.95-1.146-7.626-.978-15.276-1.571-22.94-2.156l-2.97-.233-2.639-.2c-2.546-.27-5-.724-7.501-1.265v-1l7-1-12-2z"/>
        <path fill="#E1E4F1" d="M248 90c8.847-.336 17.431.577 26.191 1.654 2.332.286 4.664.562 6.997.836l4.468.537 2.102.25c2.892.359 5.468.798 8.242 1.723v4c-8.091.153-15.969-.191-24-1.187l-3.158-.388C261.254 96.393 254.75 94.745 248 91z"/>
        <path fill="#E7EAEC" d="M308 336c8.09-.786 14.204-1.367 20.938 3.688A738 738 0 0 1 334 344a125 125 0 0 0 4.688 2.938L342 349v1c-9.028.758-15.445.945-22.703-5.047L317 343a238 238 0 0 0-5.125-3.375A94 94 0 0 1 308 337z"/>
        <path fill="#535A5F" d="M434 126c7.38.994 14.161 2.576 21.18 5.059 2.543.849 5.008 1.474 7.632 2.004 4.028.815 7.47 2.197 11.188 3.937l-1.5 1.813c-1.783 2.157-1.783 2.157-1.5 5.187-2.595-.964-4.937-1.96-7.297-3.418-9.94-5.817-23.071-10.375-34.703-9.582v-2l5-1z"/>
        <path fill="#CED4EA" d="m381 212 3 2-3 1-1 3 3 1-3.375.918c-8.586 2.352-17.124 4.783-25.584 7.557-2.815.908-5.06 1.525-8.041 1.525l1-6 3.438-.875L354 221l1-2 2.852.105 3.773.083 3.727.105c3.955-.318 6.251-1.304 9.648-3.293l2.813-1.625c2.082-1.196 2.082-1.196 3.187-2.375"/>
        <path fill="#DBDFE9" d="M485 187c-2.906 1.257-4.796 2-8 2 .959 2.33.959 2.33 4 4-10.893 3.497-21.753 6.811-33 9l1-3-4-2 2.75-.794 10.165-2.941 4.388-1.269 6.33-1.832 3.84-1.11a118 118 0 0 0 6.8-2.252C482 186 482 186 485 187"/>
        <path fill="#DADEE6" d="M398 332a173 173 0 0 1 17.46 7.762c4.083 1.99 8.298 3.623 12.54 5.238l-3 4c-3.802-.636-7.082-1.741-10.625-3.25l-3.148-1.34A734 734 0 0 1 397 338v-2h2z"/>
        <path fill="#E6EAF4" d="M378 373c6.874.793 13.678 1.908 20.5 3.063l3.36.564q4.07.684 8.14 1.373l-1 3c-2.98.055-5.958.094-8.937.125l-2.518.05c-5.82.046-10.905-.73-16.545-2.175v-2l-4-1z"/>
        <path fill="#E5E9EA" d="M276 315c8.267-.285 13.42 1.332 20.375 6.063 1.06.712 2.12 1.425 3.21 2.16L302 325v1c-6.242.831-12.226 1.552-17.602-2.191-3.013-2.405-5.768-4.991-8.398-7.809z"/>
        <path fill="#EBEFF0" d="M246 293c4.46-.885 8.74-1.337 12.797 1.063 4.036 2.982 7.692 6.359 11.203 9.937v1c-10.959.787-10.959.787-14.812-2.125L253 300a135 135 0 0 0-3.812-3.25A89 89 0 0 1 246 294z"/>
        <path fill="#E6E9F5" d="M510 148c6.469 1.213 10.615 4.092 15 9 1.813 3.777 2.245 6.837 2 11l-5 2c-1-2-1-2-.812-4.812-.244-4.14-1.231-5.305-4.188-8.188-2.594-1.802-5.258-3.436-8-5z"/>
        <path fill="#ECEFF4" d="M260 198v6q-4.561 1.224-9.125 2.438l-2.594.697c-4.41 1.17-8.756 2.22-13.281 2.865.344-2.79.344-2.79 2-6 3.347-1.684 6.87-2.498 10.5-3.375l2.957-.785C257.495 198 257.495 198 260 198"/>
        <path fill="#EEF2F2" d="M430 130c15.96.72 30.799 7.3 44 16l1 2-1.937.688c-2.335 1.165-2.335 1.165-2.813 3.937L470 155h-1l-.375-3.562c-1.306-5.132-4.388-7.11-8.73-9.844-9.485-5.222-19.452-8.04-29.895-10.594z"/>
        <path fill="#D4D9E7" d="m525 168 1 3c-4.218 6.678-11.742 11.176-19 14h-3l1-3 3 1c-.959-2.33-.959-2.33-4-4q2.904-1.472 5.813-2.937l3.269-1.653C516 173 516 173 519 172l1-3z"/>
        <path fill="#EAEDF7" d="M266 367c10.111.499 19.995 1.39 30 3-3.91 3.91-10.194 3.076-15.437 3.125-4.946-.034-9.68-.359-14.563-1.125l-1-3z"/>
        <path fill="#F3F6F6" d="M266 102c8.1.546 16.013 1.541 24 3l-1 5a3719 3719 0 0 1-9.25-.937l-2.645-.264-2.558-.264-2.349-.238c-2.124-.287-4.131-.735-6.198-1.297z"/>
        <path fill="#CCD0DF" d="m427 165-9 4v3c-4.522 1.711-8.556 2.352-13.375 2.625l-3.773.227L398 175v-4c23.891-7.703 23.891-7.703 29-6"/>
        <path fill="#C9CCDC" d="m321 371 2.101.092c13.974.6 27.911 1.07 41.899.908v2c-19.968.185-19.968.185-29-1v2l11 2v1c-14.781.185-14.781.185-21-1l-1-5z"/>
        <path fill="#CCD1FA" d="m218.191 87.305 2.023.132q2.105.138 4.208.287c2.137.151 4.274.29 6.412.429 11.347.76 11.347.76 16.166 1.847v1h-44c2-3 2-3 4.675-3.706 3.58-.316 6.93-.229 10.516.011"/>
        <path fill="#D4D9E8" d="M315 288c3.616.623 5.878 2.154 8.813 4.313 3.953 2.846 7.909 5.362 12.187 7.687l-4 2v2c-3.8-1.371-6.887-3.116-10.187-5.437l-2.606-1.81C317 295 317 295 315 292z"/>
        <path fill="#8387C0" d="M406 120h2l-1 5c-3.783 1.228-7.504 1.095-11.43 1.022l-2.249-.03c-2.445-.032-4.891-.073-7.337-.113l-5.094-.072q-6.697-.094-13.395-.202-6.838-.104-13.675-.2-13.41-.195-26.82-.405v-1q13.704-.231 27.41-.443 6.364-.097 12.727-.205 6.147-.104 12.294-.195 2.34-.036 4.68-.078 3.288-.056 6.577-.1l3.775-.061c3.587.083 6.999.502 10.537 1.082z"/>
        <path fill="#D6D9E9" d="M348 225c-.508 2.348-.508 2.348-2 5-2.735 1.103-5.034 1.821-7.875 2.438l-2.184.56c-3.15.74-5.36 1.211-8.449.1L326 232c2.118-3.177 2.406-3.424 5.809-4.422l2.263-.668 2.365-.66 2.354-.707c5.817-1.674 5.817-1.674 9.209-.543"/>
        <path fill="#D6DAE5" d="m256.98 364.305 3.03.27 3.177.3 3.12.278c5.257.478 10.476 1.036 15.693 1.847v1h-15l-1 3a701 701 0 0 1-6.25-.375l-3.516-.21c-2.941-.377-4.734-.892-7.234-2.415l1-3c2.583-1.292 4.109-.956 6.98-.695"/>
        <path fill="#C4C8E4" d="M248 90c9.466-.368 18.639.77 28 2-1.129 1.965-1.129 1.965-3 4-9.068 1.892-16.982-.955-25-5z"/>
        <path fill="#E3E8EC" d="M438 162v3c-6.878 3.751-13.104 6-21 6 .5-1.875.5-1.875 2-4 2.652-.985 5.205-1.46 8-2v-2c7.429-2.429 7.429-2.429 11-1"/>
        <path fill="#EDF2F3" d="M227 274c3.171-.519 4.936-.765 8 0 3.41 2.648 6.272 5.66 9 9v1c-3.138.523-5.872.646-9 0-3.154-2.269-5.696-4.873-8-8z"/>
        <path fill="#F8FCFD" d="M480 384h23v4q-4.062.08-8.125.125c-.76.017-1.521.034-2.305.05-4.603.04-8.235-.416-12.57-2.175z"/>
        <path fill="#DEE1EE" d="M482 135c5.039.492 9.333 2.15 14 4l-2 2-2-1v3c-4.865-.66-9.26-1.966-13.875-3.562l-2.086-.71q-2.521-.86-5.039-1.728c3.42-.95 6.453-1 10-1z"/>
        <path fill="#D6D9F5" d="m388 127 16 2 1 4-1 1c-5.66-.505-11.593-1.19-17-3l-1-2h2z"/>
        <path fill="#F6FAFB" d="m309 370 16 2 1 4c-6.65.25-12.57-.26-19-2z"/>
        <path fill="#D1D5E3" d="m142 261 4 1c1.392 4.793.687 9.151 0 14l-1-3h-4l-1 2c-.212-5.192.409-9.127 2-14"/>
        <path fill="#E3E8F0" d="m449 197 2 1Zm0 1c0 3 0 3-1 5-5.039 1.028-9.887 1.09-15 1 1-3 1-3 4.063-4.687 4.07-1.622 7.597-1.541 11.937-1.313"/>
        <path fill="#E4E7EC" d="m200 220 1 2-17 7-1-3h2l.688-2.437C187 221 187 221 189.125 220.188c3.64-.238 7.227-.25 10.875-.188"/>
        <path fill="#D8DCE9" d="m444 153 2 2 4-2c-.222 3.883-.962 4.963-3.812 7.75C441.583 164 441.583 164 439 164c-1.75-1.437-1.75-1.437-3-3 4.75-3.875 4.75-3.875 7-5z"/>
        <path fill="#E9ECF3" d="M150 249h3c-.689 3.389-1.987 6.18-3.562 9.25l-1.38 2.703L147 263l-4-2c.374-5.364 1.996-7.496 6-11z"/>
        <path fill="#CCD1DF" d="M437 201h-3v2l5 1c-3.047 1.694-5.828 2.495-9.25 3.125l-2.703.508L425 208v-3l-3-2c1.746-.533 3.497-1.05 5.25-1.562.975-.29 1.95-.58 2.953-.88 2.76-.55 4.188-.496 6.797.442"/>
        <path fill="#696F72" d="M434 126c12.67 1.927 12.67 1.927 18 4v1h-7v2l-1.723-.437c-4.9-1.178-9.242-1.777-14.277-1.563v-2l5-1z"/>
        <path fill="#D2D5E2" d="M354 311c4.498 1.687 8.729 3.817 13 6-1.634 1.708-2.87 2.935-5 4-1.945-.777-1.945-.777-4.125-1.937l-2.195-1.153L354 317l2-1z"/>
        <path fill="#CCD0E4" d="m326 230 2 1v2h6c-2.861 1.907-5.353 3.004-8.562 4.188l-2.942 1.105C320 239 320 239 318 238c.063-1.75.063-1.75 1-4 2.251-1.725 4.401-2.77 7-4"/>
        <path fill="#DCDCFF" d="M245.939 92.799 248 93l2 3-46-1v-1a54947 54947 0 0 1 21.96-.573l10.528-.274q2.28-.06 4.56-.102c1.631-.043 3.262-.14 4.891-.252"/>
        <path fill="#C9D1D5" d="M430 130c9.202.415 19.773 1.89 27 8-3 1-3 1-4.734.363l-2.016-1.05c-6.455-3.073-13.34-4.601-20.25-6.313z"/>
        <path fill="#D4D8E4" d="M413 117c4.161-.082 7.947.018 12 1-1.416 2.195-2.431 3.725-4.812 4.875-3.04.174-5.376-.789-8.188-1.875z"/>
        <path fill="#636B6D" d="M461 133c4.847.591 8.607 1.98 13 4l-1.5 1.813c-1.783 2.157-1.783 2.157-1.5 5.187-3.083-1.199-6.063-2.477-9-4v-2l4 1v-3l-5-2z"/>
        <path fill="#596167" d="m261 96 16 1v1l-7 1 1 3h-5l-1 2z"/>
        <path fill="#D1D4E4" d="M398 332q2.473.926 4.938 1.875l2.777 1.055C408 336 408 336 409 338h-3v3l-9-3v-2h2z"/>
        <path fill="#545C61" d="M269 98h15l-4 1v3c-2.861 1.43-4.84 1.387-8 1z"/>
        <path fill="#D2D6E7" d="m371 369 9 3-2 1v3l3 1-1 2-1.645-.875-2.168-1.125-2.144-1.125c-2.132-1.072-2.132-1.072-5.043-.875.506-2.169 1-4 2-6"/>
        <path fill="#F7FBFB" d="M394 377q2.874-.079 5.75-.125l3.234-.07c2.94.19 4.54.668 7.016 2.195l-1 2c-5.415.115-10.63-.318-16-1z"/>
        <path fill="#AEB0D6" d="m381 212 3 2-3 1-1 3 3 1-11 3v-2l-3-1 2.688-1.312c4.968-2.378 4.968-2.378 9.312-5.688"/>
        <path fill="#EDF1F2" d="M510 148c2.875.188 2.875.188 6 1 1.188 2.438 1.188 2.438 2 5l3 2-1 3-11-7z"/>
        <path fill="#9EA3EC" d="M406 120h2l-1 5c-7.449 2.148-15.431.977-23 0 2-2 2-2 4.574-2.23 5.568.076 10.942.233 16.426 1.23z"/>
        <path fill="#E4E5F4" d="M211 87c2.155-.249 2.155-.249 4.79-.074l2.85.166 2.985.22 3.008.186q3.685.23 7.367.502v2h-23z"/>
        <path fill="#D3D6E9" d="m184 223 2 1-1 2h-2v4c-2.375 1.063-2.375 1.063-5 2l-2-1v-2l-2-1q2.43-1.294 4.875-2.562l2.742-1.442z"/>
        <path fill="#E7EBF7" d="M141 273h4c1.158 3.473 1.069 6.36 1 10h-4c-1.607-3.215-1.057-6.436-1-10"/>
        <path fill="#CACEDD" d="M260 198v6l-6 1-2-4v2h-3v-2q2.186-.755 4.375-1.5l2.46-.844C258 198 258 198 260 198"/>
        <path fill="#D3D7E3" d="m437 122 3.813.375 2.144.21C445 123 445 123 448 125h-2v3l-10-1 3-2z"/>
        <path fill="#E6EAF4" d="m390 330 7 1 2 5c-1.625.75-1.625.75-4 1-3.25-1.937-3.25-1.937-6-4z"/>
        <path fill="#EEF1F6" d="M412 207v5h-10l-1-2c6.5-3 6.5-3 11-3"/>
        <path fill="#D2D6E4" d="M453 356c5.75 1.75 5.75 1.75 8 4l-3 1 1 3-9-3z"/>
        <path fill="#EFF2F8" d="m337 228 1 4c-1.622.389-3.248.76-4.875 1.125l-2.742.633L328 234l-2-2c2.927-2.927 6.86-4 11-4"/>
        <path fill="#C5C9DB" d="M252 14c-1.555 3.817-4.036 6.192-7 9l-1-2-4 2c1.398-3.409 2.85-4.874 6-6.75l2.125-1.297C250 14 250 14 252 14"/>
        <path fill="#D8DAE4" d="M505 145c3.603-.412 4.784-.154 7.813 2l2.187 2c-4.302.956-7.724 1.425-12 0z"/>
        <path fill="#F0F2F8" d="m389 213-2 5-8 1c.813-2.437.813-2.437 2-5 2.928-.976 4.956-1.082 8-1"/>
        <path fill="#D5DCDE" d="m402.188 185.938 2.73.027L407 186v2h-4v2l-9-1v-2c3.015-1.004 5.042-1.103 8.188-1.062"/>
        <path fill="#7F82B9" d="M357 62c1.43 2.354 2.087 3.48 1.625 6.25L358 70c2.833 1.416 5.475 1.346 8.625 1.563l3.602.253L373 72v1h-17c-1.138-4.55-.428-6.63 1-11"/>
        <path fill="#5B6165" d="M355 368c3.646 1.28 5.167 2.167 8 5h-16v-1h6v-2h2z"/>
        <path fill="#DADDE7" d="m157 299 5 5-2 3-1 2-5-6z"/>
        <path fill="#E5E8F1" d="m314 285 2 7c-3.528 0-4.468-.643-7-3v-3c2-1 2-1 5-1"/>
        <path fill="#F2F5F7" d="M442 147c2.962.613 4.38 1.254 7 3v4h-2l-1 2c-2.503-2.938-3.47-5.179-4-9"/>
        <path fill="#EEF1F2" d="M364 318c4 0 4 0 6.25 1.813C372 322 372 322 372 325c-6.646-1.477-6.646-1.477-8.437-4.125L363 319z"/>
        <path fill="#E8ECF6" d="m200 220 1 2-9 3v-2l-3 1 1-3c3.215-1.607 6.436-1.057 10-1"/>
        <path fill="#E3E8EA" d="m427.125 179.938 3.32.027L433 180c-3.146 2.801-5.067 3.353-9.25 3.188l-2.703-.082L419 183v-2c2.765-1.382 5.046-1.095 8.125-1.062"/>
        <path fill="#D2D5E9" d="M115 175c2.248 2.052 3.002 3.007 4 6l-1.812.813c-2.16 1.172-3.546 2.38-5.188 4.187.468-4.056.88-7.466 3-11"/>
        <path fill="#C7C9E1" d="M306 95c0 2 0 2-2.125 4.375-2.855 2.606-5.614 4.577-8.875 6.625 1.395-4.44 3.561-6.905 7-10 2-1 2-1 4-1"/>
        <path fill="#D9DCE5" d="m318 233 2 1c-.562 2.875-.562 2.875-2 6-3.625 1.375-3.625 1.375-7 2 1.794-4.037 3.206-6.645 7-9"/>
        <path fill="#D3D6EA" d="M384 196c-.654 5.07-2.855 9.42-5 14-1.315-4.173-.304-6.859 1-11v-2c2-1 2-1 4-1"/>
        <path fill="#C8CBEB" d="m140 103 2 3c-.859 3.936-2.03 7.482-4 11h-2c.782-4.847 2.398-9.377 4-14"/>
        <path fill="#5B657D" d="m347.066 218.902 2.496.035c.826.01 1.653.018 2.504.027L354 219v3l-8 2v-2l-2-2c1-1 1-1 3.066-1.098"/>
        <path fill="#556081" d="M236 205c1.594 3.189.908 5.709 0 9l-8 2c1.375-2 1.375-2 3-4h2l.375-1.812C234 208 234 208 236 205"/>
        <path fill="#F7FBFC" d="M487 186v4l-9 2-1-3q1.935-.755 3.875-1.5l2.18-.844C485 186 485 186 487 186"/>
        <path fill="#4C5671" d="m276 219 21 1v1l-18 1v-2z"/>
        <path fill="#D0D4E4" d="m466 193-1 2 2 2c-2.709 1.354-5.01 1.065-8 1l1-2-2-2c3.067-1.862 4.597-2.215 8-1"/>
        <path fill="#CACEE6" d="M196 332c1.938.625 1.938.625 4 2 .75 3.125.75 3.125 1 6-5.75-1.625-5.75-1.625-8-5l3-1z"/>
        <path fill="#E5E8F0" d="M406 337q3.51.43 7 1v3l-7 1c-.562-1.937-.562-1.937-1-4z"/>
        <path fill="#F2F6F8" d="m332 300 4 1v2l3 1v2c-3 1-3 1-5.125.25C332 305 332 305 331 302z"/>
        <path fill="#D3D6E2" d="m306 281 4 1v2l2 1-3 1v2c-3.875-1.75-3.875-1.75-5-4h2z"/>
        <path fill="#E6EBFA" d="M372 220v2l-11 2 1-4c3.695-.95 6.305-.95 10 0"/>
        <path fill="#C8CBE2" d="M444 30h1v5l2 1-2 1c-.828 2.484-1 4.352-1 7v2l-3-1c.778-5.055 1.86-10.017 3-15"/>
        <path fill="#CCCFDE" d="M488 137c3.375.547 5.082 1.055 8 3l-2 1-2-1v3l-6-1 3-3z"/>
        <path fill="#F6FAFA" d="M432 122c2.313-.25 2.313-.25 5 0 1.813 2 1.813 2 3 4h-8z"/>
        <path fill="#6F7496" d="M289 99h6l-2 1c-.91 2.344-.91 2.344-1.625 5.063-.26.919-.52 1.838-.79 2.785L290 110l-1-3 1-2h-6v-1h5l1-2 1-1z"/>
        <path fill="#B9BCD9" d="M152 95c-1 3-1 3-3.062 4.188L147 100v2l-6 1c1.056-3.284 2.617-4.572 5.5-6.25C150 95 150 95 152 95"/>
        <path fill="#9FA1D2" d="M69 63c1.208 3.623.543 4.641-1 8l8 1v1h-9c-1.392-4.176.177-6.135 2-10"/>
        <path fill="#A0A4D8" d="M222 65c2.366 2.366 2.582 3.743 3 7-1 1-1 1-3.504 1.098l-3.059-.035-3.066-.028L213 73v-1l9-1z"/>
        <path fill="#9B9FCB" d="m464.375 9.938 3.773.027 2.852.036v1c-7.055 1.204-13.834 2.28-21 2l1-2c4.466-1.067 8.8-1.106 13.375-1.063"/>
        <path fill="#B9BDDB" d="m508 379 3 2c.188 3.125.188 3.125 0 6l-5 1 1-3.375c1.089-3.32 1.089-3.32 1-5.625"/>
        <path fill="#444B73" d="m389 193 1 3-1 2h2l-2 5h-3c.507-3.719 1.116-6.735 3-10"/>
        <path fill="#D0D3E6" d="m454 196-1 5-5 1 1-3-4-2c3.196-1.065 5.657-1.074 9-1"/>
        <path fill="#F2F6F8" d="m280 104 8 1-1 3h-8z"/>
        <path fill="#C5CDEE" d="M200 63h2v4h2l1 5h4v2h-5a875 875 0 0 1-2-4.375l-1.125-2.46C200 65 200 65 200 63"/>
        <path fill="#E7ECF7" d="m405 170-1 4-6 1v-4c2.463-1.231 4.28-1.072 7-1"/>
        <path fill="#C8CFE0" d="M266 102h6l-2 1 2 5-6-1z"/>
        <path fill="#BCC0EA" d="M345 64h1l-1 9h-11v-1l3.25-.375c3.129-.521 5.085-1.026 7.75-2.625z"/>
        <path fill="#C9CCE5" d="M85 28h1c.625 2.813.625 2.813 1 6l-2 3h-2l-1 2c-1-3-1-3-.223-5.043l1.16-2.145 1.153-2.167z"/>
        <path fill="#E5E9F5" d="m322.688 371.75 2.313.25 1 4h-9c2.338-3.938 2.338-3.938 5.687-4.25"/>
        <path fill="#F9FDFC" d="m285 369 11 1c-2 2-2 2-3.945 2.195L286 372z"/>
        <path fill="#DFE7E8" d="M456 138c3.603-.412 4.784-.154 7.813 2l2.187 2-3 2a698 698 0 0 1-3.5-2.437l-1.969-1.372L456 139z"/>
        <path fill="#D6D9F0" d="m511 65 3 1-3 7h-9v-1h8z"/>
        <path fill="#BCBFF1" d="M152 11h4c-.715 4.764-1.795 9.342-3 14h-1c-.071-4.263-.11-7.88 1-12z"/>
        <path fill="#F4F7F7" d="m355 312 1 4-6-1-1-3c2.49-1.245 3.41-.777 6 0"/>
        <path fill="#E1E8EC" d="m274.75 218.938 2.422.59L279 220l-2 2c-2.375-.375-2.375-.375-5-1h-4l-2-2c3.272-1.073 5.43-.892 8.75-.062"/>
        <path fill="#50548C" d="m411 121 3 1-3.71 4.395c-1.182 1.47-2.244 3.035-3.29 4.605l-3-2 2.375-1.75c2.425-2.079 3.482-3.34 4.625-6.25"/>
        <path fill="#C0C3E2" d="M288 105h2l-1 5-13-1c4.18-2.786 6.147-1.796 11-1z"/>
        <path fill="#E9EEEF" d="M448 173c1.945-.293 1.945-.293 4.125-.187L456 173c-1.062 1.5-1.062 1.5-3 3-3.687.188-3.687.188-7 0z"/>
        <path fill="#D4DBDB" d="M446 134c4.557.438 7.577.85 11 4-3 1-3 1-5.043.223l-2.144-1.16-2.168-1.153L446 135z"/>
        <path fill="#B0B2DE" d="M189 13h1l1 8h-2l-.375 1.938L188 25l-2 1z"/>
        <path fill="#C4C6E7" d="M504 11c-3.047 1.694-5.828 2.495-9.25 3.125l-2.703.508L490 15l1-3c4.394-.857 8.526-1.09 13-1"/>
        <path fill="#A0A3D8" d="M326 11q2.188-.04 4.375-.062l2.46-.036C335 11 335 11 337 12l-2 6c-2-3.75-2-3.75-2-6h-7z"/>
        <path fill="#545B63" d="m346 313 6 2-1 3h-5c-.562-1.937-.562-1.937-1-4z"/>
        <path fill="#F5F8F9" d="M254.563 224.938c1.207.03 1.207.03 2.438.063v4l-3 1-3-4c1-1 1-1 3.562-1.063"/>
        <path fill="#848CA0" d="M261 96h8v1h-5c1.833 3.167 1.833 3.167 5 5h-3l-1 2z"/>
        <path fill="#B3B6DD" d="M326 10c-2.628 2.522-3.914 2.993-7.625 3.313C315 13 315 13 313 11c4.376-.593 8.575-1.138 13-1"/>
        <path fill="#E8EAF6" d="m465 361-1 2c-2.562.625-2.562.625-5 1l-1-3c2.667-1.333 4.167-.671 7 0"/>
        <path fill="#F2F5F5" d="M380 325c1.938.813 1.938.813 4 2l1 3-7-1z"/>
        <path fill="#676D73" d="M172 236c-1 3-1 3-2.812 4L167 241c-1.351.976-2.69 1.97-4 3l-2-1a791 791 0 0 1 4.375-3.5l2.46-1.969C170 236 170 236 172 236"/>
        <path fill="#F8FAFC" d="M423.563 203.938c1.207.03 1.207.03 2.438.063l-1 4h-5c0-3.976 0-3.976 3.562-4.063"/>
        <path fill="#D7DBE7" d="m237 204 4 1-2 3 2 1-6 1z"/>
        <path fill="#F7FBFD" d="m449 197 2 1Zm-4 1 5 1-2 3h-4z"/>
        <path fill="#ADAFD2" d="M267 183c1.46 2.647 2 3.894 2 7-2.5 2.188-2.5 2.188-5 4 .672-3.806 1.727-7.352 3-11"/>
        <path fill="#AEB2DC" d="m281 144 3 3-5 6c-1-3-1-3 .438-6.187.515-.929 1.03-1.857 1.562-2.813"/>
        <path fill="#D6DCD9" d="M471 136h10l2 4-12-3z"/>
        <path fill="#CFD3EA" d="M269 68c-1.264.7-2.537 1.384-3.812 2.063l-2.145 1.16C261 72 261 72 258 71v-2l2.313-.437c6.373-1.334 6.373-1.334 8.687-.563"/>
        <path fill="#B6B7DB" d="M471 131q2.19.425 4.375.875l2.46.492C480 133 480 133 482 135c-7.429.286-7.429.286-11-2z"/>
        <path fill="#B1B3E1" d="m248 93 2 3-13-1v-1c7.478-1.391 7.478-1.391 11-1"/>
        <path fill="#B7BDDB" d="m328 55 2 1q-.172 2.22-.375 4.438l-.21 2.496L329 65l-2 1z"/>
        <path fill="#ACB0D9" d="M32 38h1l1 8h-2v4h-2z"/>
        <path fill="#C8CDE6" d="M437 38h1c-.458 3.47-.891 6.674-2 10l-3-1c1.059-3.403 2.009-6.014 4-9"/>
        <path fill="#C0C4E8" d="M41 12h6v1l-5 1-.875 2.938C40 20 40 20 38 21c.557-3.344 1.352-6.033 3-9"/>
        <path fill="#D7D7F2" d="m201 11-2 1-1 2-2 1c-2.625-.937-2.625-.937-5-2 3.644-2.43 5.712-2.162 10-2"/>
        <path fill="#E8EBF1" d="m247 362 5 1v2l-5 2-1-2z"/>
        <path fill="#BABED9" d="M169 231v3c-1.75 1.75-1.75 1.75-4 3l-4-1z"/>
        <path fill="#C1C5E3" d="M358 171h1v8l-4 2c.61-3.558 1.578-6.683 3-10"/>
        <path fill="#F5F8F9" d="M419 167c1.938.375 1.938.375 4 1l1 2-7 1z"/>
        <path fill="#EAEFF1" d="m504 378 4 1v2l-2 1-1 2-3-2z"/>
        <path fill="#C4C8E0" d="M319 234c3 1 3 1 6 3l-7 2z"/>
        <path fill="#B4B7D5" d="M177 55c1.62 2.572 2.044 3.677 1.625 6.75L178 64l-3 1c.458-3.47.891-6.674 2-10"/>
        <path fill="#B5BBE2" d="M174 47c1.033 2.788 1.045 3.868.063 6.75L173 56c-1.125-1.75-1.125-1.75-2-4 .757-2.038 1.463-3.463 3-5"/>
        <path fill="#AEB1D0" d="m132 18 1 4 2 1-2 2-1 3h-2z"/>
        <path fill="#B8BAD8" d="M499 375c3.688.498 5.605 1.1 8 4h-6z"/>
        <path fill="#596164" d="M227 346a91 91 0 0 1 4 4v2l-4-1c-.562-1.937-.562-1.937-1-4z"/>
        <path fill="#C3C5D6" d="m413 339 5 2-2 1-3-1zm0 2v3l-5-1c3-2 3-2 5-2"/>
        <path fill="#535C60" d="m392 335 5 2v3l-4 1z"/>
        <path fill="#BAC5E8" d="m264 202 3 1 1 7c-2-1.75-2-1.75-4-4z"/>
        <path fill="#ADB2DE" d="M516 150c3.265 1.804 4.89 2.834 7 6-2.937-.75-2.937-.75-6-2-.875-2.125-.875-2.125-1-4"/>
        <path fill="#B8BBD3" d="M46 52h8v1h-5l-2 4v-2l-2-1z"/>
        <path fill="#C9D3EA" d="m247 17 1 2-8 4c2-4 2-4 4.625-5.25z"/>
        <path fill="#6D79D3" d="M343 180h7l-1 2h-7z"/>
    </g>
</svg>
